<svg width="24" height="24" viewBox="0 0 24 24" fill="none" xmlns="http://www.w3.org/2000/svg">
<path d="M19.8 12.5513C19.8 17.1905 16.0392 20.9513 11.4 20.9513C6.76081 20.9513 3 17.1905 3 12.5513C3 7.91214 6.76081 4.15133 11.4 4.15133C16.0392 4.15133 19.8 7.91214 19.8 12.5513Z" fill="white"/>
<path d="M12 0C5.37991 0 0 5.38482 0 12C0 18.6201 5.37991 24 12 24C18.6152 24 24 18.6201 24 12C24 5.38482 18.6152 0 12 0ZM16.6701 12.6054L9.46518 16.4954C9.00514 16.7402 8.45009 16.4103 8.45009 15.8904L8.45026 8.11545C8.45026 7.59545 9.00535 7.26045 9.46535 7.51049L16.6703 11.3954C17.15 11.6555 17.15 12.3454 16.6701 12.6054Z" fill="#FF0000"/>
</svg>
