<svg width="8" height="14" viewBox="0 0 8 14" fill="none" xmlns="http://www.w3.org/2000/svg">
<path d="M0.335878 13.6712C0.559797 13.8904 0.844784 14 1.19084 14C1.5369 14 1.82188 13.8904 2.0458 13.6712L7.66412 8.1704C7.78626 8.05082 7.87298 7.92128 7.92427 7.78176C7.97476 7.64225 8 7.49278 8 7.33333C8 7.17389 7.96947 7.01923 7.9084 6.86936C7.84733 6.72028 7.7659 6.59591 7.66412 6.49626L2.0458 0.995517C1.82188 0.776284 1.5369 0.666666 1.19084 0.666666C0.844784 0.666666 0.559797 0.776284 0.335879 0.995517C0.11196 1.21475 5.46665e-07 1.49377 5.31855e-07 1.83259C5.17045e-07 2.1714 0.11196 2.45042 0.335879 2.66966L5.09924 7.33333L0.335878 11.997C0.11196 12.2162 6.5774e-08 12.4953 5.0964e-08 12.8341C3.61539e-08 13.1729 0.11196 13.4519 0.335878 13.6712Z" fill="#0D0D0D"/>
</svg>
