<svg width="9" height="15" viewBox="0 0 9 15" fill="none" xmlns="http://www.w3.org/2000/svg">
<path fill-rule="evenodd" clip-rule="evenodd" d="M1.16786 0.321657C1.54324 -0.107515 2.15231 -0.107515 2.52769 0.321657L7.96789 6.52783C8.06683 6.64032 8.14304 6.7762 8.1912 6.92592C8.23935 7.07565 8.25829 7.23561 8.24667 7.39459C8.24965 7.54287 8.22623 7.69029 8.17784 7.8279C8.12944 7.96551 8.05707 8.09044 7.96513 8.19508L2.52768 14.4055C2.34725 14.6114 2.10272 14.7271 1.84777 14.7271C1.59282 14.7271 1.34829 14.6114 1.16786 14.4055C1.07862 14.3036 1.00782 14.1825 0.959519 14.0493C0.911215 13.9161 0.886353 13.7734 0.886353 13.6292C0.886353 13.485 0.911215 13.3422 0.959519 13.209C1.00782 13.0758 1.07862 12.9548 1.16786 12.8529L5.97692 7.36198L1.16786 1.87425C1.07865 1.77244 1.00787 1.65152 0.959581 1.51841C0.911289 1.38529 0.886432 1.24259 0.886432 1.09848C0.886432 0.954368 0.911289 0.81167 0.959581 0.678554C1.00787 0.545438 1.07865 0.423464 1.16786 0.321657Z" fill="#F9AD4A"/>
</svg>
