<svg width="25" height="26" viewBox="0 0 25 26" fill="none" xmlns="http://www.w3.org/2000/svg">
<path d="M1.00142 23.1152V23.2015L1.08611 23.2283C4.74251 24.4037 8.56767 25.0019 12.4171 25C16.2649 25.0013 20.0883 24.4033 23.7432 23.2283L23.8278 23.2015V23.1152C23.8802 18.6246 22.4918 17.1047 20.0737 15.994C18.7974 15.4092 17.4452 14.6697 16.4989 14.1298L16.3832 14.0641C16.1417 13.9254 15.9374 13.8075 15.7793 13.7138L15.6946 13.664L15.6262 13.6239L15.4769 13.535V12.7945C15.6013 12.6327 15.7046 12.4966 15.8119 12.3653C16.148 11.9544 16.4145 11.6248 16.5865 10.8977C17.067 10.8502 17.4244 10.072 17.4244 9.04689C17.4244 8.27587 17.2127 7.62297 16.8965 7.34454C17.0385 7.03939 17.0485 6.37906 16.9252 5.33574C16.6837 3.26865 15.6414 2.80635 15.37 2.72003C15.218 2.42083 14.3738 1.05411 11.759 1.00536C10.0681 0.975036 9.10792 1.07343 8.90508 1.29969L8.90443 1.2999C8.87012 1.33595 8.85318 1.38473 8.8584 1.43371L8.87338 1.52362L8.96675 1.5357C9.09117 1.55161 9.21581 1.57345 9.34023 1.5989V1.59911C8.92093 1.6517 8.54244 1.87181 8.29557 2.20706L8.16116 2.38815L8.39024 2.39918C8.51922 2.40236 8.64625 2.43098 8.76373 2.48315C8.562 2.63031 8.00417 3.124 7.84241 4.13567C7.69041 5.09392 7.89843 6.68922 7.9905 7.29717C7.64308 7.5476 7.40533 8.23105 7.40533 9.04832C7.40533 10.0734 7.76275 10.8516 8.24326 10.8991C8.41502 11.6288 8.68167 11.9558 9.01782 12.3668C9.12357 12.498 9.23453 12.6344 9.35287 12.796V13.5365L9.25451 13.5948L9.1861 13.6349L9.09404 13.6896L8.9757 13.7576L8.49104 14.0388L8.47606 14.0473L8.36771 14.1092C7.55951 14.5713 6.1264 15.369 4.75666 15.9965C2.33748 17.1043 0.949119 18.6243 1.00143 23.115L1.00142 23.1152ZM16.1374 14.208C15.6232 14.9231 14.5063 16.2035 12.4267 17.4815C12.1316 17.338 10.7085 16.5671 8.74097 14.1752L8.77094 14.1582L8.82327 14.1289L8.92902 14.067L8.96767 14.0452L9.07602 13.982L9.10207 13.9661L9.12574 13.9527C11.0059 16.3848 12.317 16.9368 12.3731 16.9599L12.4317 16.9843L12.4864 16.9501C14.6268 15.6454 15.4536 14.3503 15.6753 13.9405H15.6827L15.755 13.9818L15.831 14.0268L15.9131 14.0743L16.0041 14.1267L16.0862 14.1742L16.1374 14.208ZM9.42354 13.7775C9.4459 13.7629 9.46588 13.7508 9.48217 13.7423L9.51821 13.7205H9.53428L9.59291 13.6853V13.1321L9.64524 13.1917L9.71255 13.2695C9.7436 13.3036 9.77487 13.3376 9.80722 13.3704L9.87453 13.4421L9.97529 13.5405L10.0413 13.6037L10.1559 13.7046L10.212 13.7532C10.2693 13.8007 10.3277 13.8469 10.3863 13.8893L10.4174 13.9124C10.466 13.9476 10.5157 13.9831 10.5644 14.0157L10.6317 14.0583L10.7474 14.1289L10.8247 14.1716L10.9344 14.2312L11.0154 14.2702L11.1237 14.32L11.2084 14.3552L11.3168 14.3978L11.4028 14.4271L11.5135 14.4623L11.5995 14.4867L11.7128 14.5147L11.7975 14.5329L11.9219 14.5535L12.0016 14.5656C12.0464 14.5656 12.0913 14.5753 12.1373 14.5802H12.2034C12.2718 14.5802 12.3391 14.5864 12.4075 14.5864C12.4759 14.5864 12.5432 14.5864 12.6116 14.5802H12.6776C12.7236 14.5802 12.7686 14.5717 12.8133 14.5656L12.893 14.5535L13.0174 14.5329L13.1008 14.5147L13.2154 14.4867L13.3014 14.4623L13.4122 14.4271L13.4982 14.3978L13.6065 14.3552L13.6912 14.32L13.7996 14.2702L13.8805 14.2312L13.9913 14.1716L14.0673 14.1289L14.1843 14.0573L14.249 14.0159C14.3014 13.9818 14.3511 13.9466 14.401 13.9088L14.4284 13.8906C14.487 13.8469 14.5454 13.8007 14.6028 13.7519C14.6214 13.7373 14.6388 13.7216 14.6564 13.7057C14.6963 13.6728 14.7348 13.6389 14.7734 13.6024C14.8121 13.5659 14.8171 13.5623 14.8381 13.5416C14.8592 13.521 14.9065 13.4758 14.9402 13.4419L15.0075 13.3713C15.0386 13.3371 15.0709 13.3032 15.1022 13.268C15.1332 13.2328 15.1469 13.2182 15.1682 13.1925L15.2218 13.1317L15.2212 13.6741L15.2798 13.7093L15.4492 13.8102H15.4566C15.2759 14.1606 14.4766 15.436 12.412 16.7141C12.1456 16.5816 10.9515 15.9104 9.34011 13.8334L9.42354 13.7775ZM16.6372 10.6341C16.6485 10.5794 16.6558 10.5234 16.6658 10.4687C16.6758 10.414 16.6869 10.3472 16.6969 10.285C16.7106 10.1951 16.7219 10.105 16.7318 10.0151C16.7392 9.95677 16.7468 9.89357 16.7529 9.83886C16.7629 9.7392 16.7703 9.63826 16.7766 9.53732C16.7766 9.48749 16.7853 9.43766 16.7879 9.38782C16.7952 9.23578 16.7992 9.08374 16.7992 8.93063V8.54766V8.41873V8.17551V8.04297C16.7992 7.96281 16.7992 7.88372 16.7892 7.79974V7.70369L16.7818 7.54804C16.9998 7.77663 17.1915 8.32498 17.1915 9.04133C17.17 9.88998 16.906 10.5126 16.6372 10.6341L16.6372 10.6341ZM8.08887 4.16754C8.26324 3.07313 8.96049 2.64031 8.96049 2.63651L8.99914 2.6134L9.01412 2.57077C9.03888 2.49952 9.02824 2.42085 8.98546 2.35808C8.89361 2.25948 8.76854 2.1965 8.63305 2.18059C9.14484 1.69414 9.8781 1.83643 9.9094 1.84385L10.1585 1.89623L10.0464 1.67103C9.96673 1.51538 9.66295 1.41572 9.38281 1.35741C9.70787 1.29061 10.3791 1.22127 11.7486 1.24671C14.4544 1.29782 15.1316 2.80189 15.1592 2.86638L15.1841 2.9247L15.2475 2.93806C15.2588 2.93806 16.4192 3.22009 16.6707 5.36165C16.8164 6.60556 16.7367 7.064 16.6707 7.21736C16.662 7.21397 16.6533 7.211 16.6444 7.20866L16.5697 7.18916C16.561 7.17813 16.5524 7.16604 16.5424 7.15501L16.505 7.10518C16.4937 7.09182 16.484 7.07719 16.4727 7.06256L16.4366 7.01145L16.4067 6.96777L16.3706 6.91539L16.3419 6.87171L16.3083 6.817C16.2983 6.80237 16.2896 6.78774 16.2809 6.77332C16.2722 6.75869 16.2586 6.73684 16.2486 6.71861L16.2236 6.67492C16.2123 6.65542 16.2012 6.63718 16.1912 6.61767L16.1689 6.57632L16.1365 6.51673L16.1155 6.47538L16.0855 6.41579L16.0655 6.37571L16.0369 6.31485C16.0369 6.30149 16.0245 6.2894 16.0195 6.27711C16.0145 6.26502 15.9995 6.23448 15.9908 6.21391C15.9821 6.19334 15.9795 6.1908 15.9745 6.17871C15.9696 6.16662 15.9559 6.13609 15.9472 6.11425L15.9322 6.0801L15.9061 6.01564V6.01585C15.9014 6.00589 15.8972 5.99571 15.8936 5.98553L15.8675 5.91979L15.8562 5.89053C15.8475 5.86869 15.8388 5.84685 15.8312 5.82373L15.8225 5.80062C15.8139 5.7775 15.8052 5.75439 15.7976 5.73255L15.7902 5.70943C15.7815 5.68632 15.7739 5.66448 15.7665 5.64264V5.64242C15.7639 5.63585 15.762 5.62885 15.7604 5.62185L15.7381 5.55506C15.7372 5.54975 15.7372 5.54445 15.7381 5.53915L15.7157 5.47235V5.46133C15.7083 5.43821 15.7007 5.4151 15.6947 5.39326V5.3835C15.6873 5.36166 15.681 5.33982 15.6747 5.31777V5.30929C15.6137 5.09532 15.58 4.94455 15.5689 4.88857H15.5687C15.5683 4.88369 15.5683 4.87882 15.5687 4.87394L15.555 4.79972L15.4803 4.77915C15.3696 4.74989 15.2599 4.72317 15.1492 4.69772L15.0495 4.67588L14.8005 4.62605L14.7045 4.60781C14.5937 4.5883 14.4841 4.57006 14.3734 4.55437H14.3497C14.2463 4.53974 14.143 4.52765 14.0409 4.51535L13.9376 4.50433C13.8566 4.49584 13.7758 4.48736 13.6961 4.48121L13.599 4.47273C13.4907 4.46425 13.3836 4.45683 13.2766 4.45216H13.2355L12.9463 4.43265H12.228L12.0026 4.4388H11.9579L11.7488 4.44856H11.7388L11.5247 4.46192H11.4836L11.2856 4.47655H11.2769L11.0789 4.49478H11.0389L10.8559 4.51302L10.6741 4.53253H10.6368L10.4724 4.5531L10.3106 4.57494H10.2757L10.1337 4.59678H10.1263L9.98928 4.61862L9.95562 4.62477L9.83989 4.64301H9.83121L9.71786 4.66252H9.6905L9.59713 4.67948L9.51244 4.69645H9.48878L9.42276 4.70981L9.36544 4.72189H9.35046L9.31051 4.73038L9.28445 4.73653H9.26816L9.17848 4.75837V4.84976C9.17696 4.87542 9.17414 4.90087 9.1698 4.92632C9.16915 4.9365 9.16915 4.94667 9.1698 4.95664C9.1698 4.97615 9.16111 4.99672 9.15612 5.01984C9.15112 5.04295 9.14874 5.04655 9.14483 5.05991C9.14114 5.07327 9.13245 5.1036 9.12485 5.12798C9.11747 5.15237 9.11486 5.15958 9.10987 5.17548C9.10487 5.19139 9.09358 5.22404 9.0849 5.2497L9.06622 5.30314C9.05623 5.32859 9.04755 5.35552 9.03626 5.3833C9.02497 5.41129 9.02258 5.42232 9.01519 5.44161C9.00781 5.46112 8.99283 5.49887 8.98024 5.52792C8.96786 5.55718 8.96395 5.56927 8.95526 5.58983C8.94658 5.6104 8.93029 5.65175 8.91661 5.68356L8.89056 5.74548C8.87688 5.77962 8.86059 5.81355 8.84583 5.84875L8.81977 5.90961L8.76744 6.03112L8.74377 6.0835C8.69144 6.19779 8.63803 6.31463 8.5807 6.43254C8.57201 6.45311 8.56202 6.47262 8.55204 6.4934L8.49601 6.61491C8.48364 6.63929 8.47104 6.66347 8.45997 6.68913C8.44868 6.71457 8.42501 6.75719 8.40894 6.79239C8.39265 6.8276 8.38288 6.8435 8.37029 6.86895L8.32056 6.96861C8.30688 6.99406 8.29451 7.01972 8.28191 7.04517C8.26954 7.07061 8.26324 7.08037 8.25455 7.0986C8.12253 6.44864 7.95316 5.0188 8.08887 4.1676V4.16754ZM7.65438 9.05326C7.65438 8.36747 7.83005 7.83737 8.03654 7.59411L8.05652 7.71562V7.84689C8.05652 7.91262 8.05652 7.98069 8.04783 8.04876V8.19339V8.45125V8.56066V8.94258C8.04783 9.09589 8.04783 9.24772 8.05913 9.39977C8.05913 9.4496 8.06651 9.49943 8.07042 9.54926C8.07042 9.6502 8.0841 9.75114 8.09409 9.85081C8.09409 9.91039 8.10776 9.97231 8.11515 10.027C8.12514 10.1169 8.13621 10.2071 8.15011 10.297C8.1601 10.3578 8.17117 10.4185 8.18116 10.4806C8.19115 10.5425 8.19853 10.5913 8.20982 10.646C7.91842 10.5126 7.65438 9.89003 7.65438 9.05326H7.65438ZM9.21212 12.215C8.86968 11.7955 8.62322 11.4853 8.46496 10.7558C8.33663 10.1559 8.27279 9.54461 8.27453 8.93172V8.5267V8.38207C8.27453 8.2981 8.27453 8.2154 8.28082 8.13885V7.99041C8.28082 7.91025 8.28082 7.82988 8.29211 7.74718V7.63521C8.29211 7.57796 8.2995 7.52325 8.3034 7.46748L8.32338 7.4274L8.34444 7.38733C8.35574 7.36676 8.36811 7.34364 8.3794 7.31926L8.40546 7.26942C8.41784 7.24504 8.43043 7.21959 8.44411 7.19393L8.47408 7.13434L8.51881 7.04549L8.54877 6.98463C8.56506 6.95431 8.58113 6.92144 8.59611 6.88985L8.62977 6.82178L8.67841 6.72338C8.6897 6.699 8.70207 6.67482 8.71445 6.64916C8.72683 6.62372 8.74442 6.5847 8.76048 6.55311C8.77677 6.52151 8.78654 6.49713 8.80044 6.46913C8.81412 6.44114 8.8291 6.40594 8.84408 6.37434L8.88512 6.28676C8.90011 6.25517 8.91378 6.2223 8.92877 6.1907C8.94375 6.15911 8.95613 6.13111 8.96872 6.10185L9.00976 6.0094C9.02214 5.97908 9.03582 5.94854 9.04972 5.91822C9.06339 5.88789 9.07469 5.85736 9.08837 5.82703C9.10205 5.79671 9.11334 5.76744 9.12441 5.73945L9.17479 5.64848C9.18608 5.62176 9.19715 5.59377 9.20714 5.56578L9.23819 5.48181L9.26816 5.40165C9.27815 5.37366 9.28683 5.34567 9.29552 5.31895C9.3042 5.29223 9.3118 5.27145 9.31788 5.25088C9.32418 5.23031 9.33525 5.19129 9.34285 5.16203L9.35784 5.1122C9.36783 5.06957 9.37651 5.0295 9.38281 4.99069C9.90459 4.87872 12.7572 4.32444 15.3257 4.99069C15.3394 5.05261 15.3617 5.14867 15.3941 5.27039L15.4015 5.29711C15.4102 5.32997 15.4189 5.36284 15.4302 5.39931C15.4302 5.41395 15.4388 5.43091 15.4438 5.44682C15.4488 5.46272 15.4625 5.51001 15.4725 5.54287L15.4912 5.60119C15.5025 5.63406 15.5122 5.66565 15.5235 5.69958L15.5472 5.76892C15.5585 5.80052 15.5696 5.83211 15.5808 5.86625L15.6108 5.94535C15.6232 5.97695 15.6345 6.00854 15.6482 6.04014C15.6618 6.07173 15.6718 6.09845 15.6831 6.12644C15.6944 6.15443 15.7081 6.18964 15.7231 6.22123C15.7381 6.25283 15.7504 6.28315 15.7641 6.31368L15.8052 6.40741C15.8201 6.43901 15.8362 6.47061 15.8525 6.5022C15.8688 6.5338 15.8825 6.56412 15.8985 6.59466C15.9148 6.62498 15.9322 6.65785 15.9495 6.68945L15.9993 6.78318L16.0566 6.87796L16.1113 6.96915L16.1736 7.0616L16.2323 7.15045L16.2996 7.2393L16.3643 7.32688L16.4366 7.41086C16.4577 7.4363 16.4789 7.46323 16.5013 7.48741V7.5629C16.5013 7.63351 16.51 7.70519 16.5137 7.77813C16.5174 7.85108 16.5137 7.90833 16.5224 7.97386C16.5311 8.0396 16.5224 8.08328 16.5224 8.13926C16.5224 8.2243 16.5224 8.31188 16.5287 8.39946V8.52096V8.92599C16.5287 9.0986 16.5287 9.27142 16.5124 9.44149C16.4961 9.73222 16.4663 10.0204 16.4214 10.3024L16.4101 10.362C16.389 10.4909 16.3654 10.6199 16.3378 10.7462C16.1797 11.4868 15.9331 11.7908 15.5906 12.2054L15.4499 12.3793V12.3634L15.2232 12.6759C14.4524 13.74 13.4464 14.3249 12.3904 14.3249L12.3909 14.3247C12.127 14.3244 11.8645 14.2882 11.6114 14.2165C10.8468 14.0025 10.1359 13.4734 9.55805 12.6759L9.33136 12.3634V12.3793L9.21212 12.215ZM8.52488 14.2993C10.7873 17.0596 12.324 17.704 12.385 17.732L12.4436 17.7564L12.4983 17.7222C14.6673 16.4005 15.8242 15.0652 16.3484 14.3308C17.301 14.8744 18.6681 15.6223 19.9595 16.2145C22.2692 17.2748 23.6041 18.7329 23.5705 23.0241L23.5701 23.0239C16.3186 25.3489 8.49577 25.3489 1.24433 23.0239C1.21328 18.7326 2.54676 17.2734 4.85538 16.2143C6.25486 15.5748 7.72054 14.7613 8.52484 14.2993L8.52488 14.2993Z" fill="white" stroke="white"/>
</svg>
