<svg width="18" height="16" viewBox="0 0 18 16" fill="none" xmlns="http://www.w3.org/2000/svg">
<path d="M2.98663 15.7142H15.0132C15.805 15.7133 16.5641 15.4195 17.1242 14.897C17.684 14.3748 17.999 13.6667 18 12.9281V4.4952C17.999 3.75663 17.684 3.04848 17.1242 2.52628C16.5641 2.00384 15.8051 1.70999 15.0132 1.70907H13.444V0.285645H12.3592V1.70907H5.62626V0.285645H4.5415V1.70907H2.98676C2.195 1.70997 1.43585 2.00383 0.875807 2.52628C0.315994 3.04849 0.000991783 3.75657 0 4.4952V12.9281C0.000968538 13.6667 0.315988 14.3748 0.875807 14.897C1.43587 15.4194 2.19482 15.7133 2.98663 15.7142ZM15.0095 14.7023H2.98663C2.47863 14.7014 1.99169 14.5126 1.6326 14.1776C1.27327 13.8427 1.07109 13.3885 1.07012 12.9145V6.11458H16.9294V12.9284C16.9284 13.4021 16.7262 13.8563 16.3669 14.1915C16.0078 14.5265 15.5209 14.7151 15.0128 14.716L15.0095 14.7023ZM2.98663 2.70813H4.55588V3.52783H5.64064V2.70813H12.3736V3.52783H13.4584V2.70813H15.0276C15.5356 2.70903 16.0226 2.89763 16.3817 3.2326C16.7407 3.56779 16.9432 4.02177 16.9441 4.49568V5.11635H1.07002V4.49904C1.07002 4.02471 1.27196 3.56959 1.63105 3.2337C1.99038 2.89806 2.47791 2.70903 2.98663 2.70813Z" fill="#F9AD4A"/>
</svg>
