<svg width="329" height="329" viewBox="0 0 329 329" fill="none" xmlns="http://www.w3.org/2000/svg">
<path d="M152.245 123.216C151.695 118.066 148.195 113.266 140.745 113.266C131.495 113.266 127.645 119.866 127.645 131.766C127.645 143.066 130.345 150.666 141.145 150.666C148.945 150.666 153.295 145.516 153.295 138.466C153.295 130.866 148.745 126.566 142.245 126.566C138.695 126.566 135.395 128.066 133.745 130.816C133.845 122.416 135.945 119.016 140.495 119.016C143.645 119.016 145.095 120.516 145.745 123.216H152.245ZM140.645 132.316C144.695 132.316 146.645 134.866 146.645 138.616C146.645 142.366 144.395 144.716 140.795 144.716C136.695 144.716 134.395 142.266 134.395 138.366C134.395 134.216 137.395 132.316 140.645 132.316Z" fill="#00B137"/>
<path d="M157.287 155.996H161.397L169.497 122.156H165.387L157.287 155.996ZM174.757 150.566H179.077V128.696H171.847V132.566H174.757V150.566ZM183.226 139.346C183.226 145.736 185.146 150.506 191.326 150.506C197.506 150.506 199.426 145.736 199.426 139.346C199.426 133.016 197.506 128.276 191.326 128.276C185.146 128.276 183.226 133.016 183.226 139.346ZM195.286 139.346C195.286 143.246 194.866 146.606 191.326 146.606C187.786 146.606 187.366 143.246 187.366 139.346C187.366 135.596 187.786 132.176 191.326 132.176C194.866 132.176 195.286 135.596 195.286 139.346Z" fill="#6E6E6E"/>
<path d="M126.451 166.708H130.271V179.168H132.091V166.708H135.891V165.228H126.451V166.708ZM148.531 173.668C148.531 170.208 146.111 168.028 142.991 168.028C139.891 168.028 137.451 170.208 137.451 173.668C137.451 177.148 139.811 179.348 142.911 179.348C146.031 179.348 148.531 177.148 148.531 173.668ZM139.311 173.668C139.311 170.908 141.051 169.608 142.971 169.608C144.851 169.608 146.671 170.908 146.671 173.668C146.671 176.448 144.811 177.748 142.911 177.748C141.011 177.748 139.311 176.448 139.311 173.668ZM150.244 173.648C150.244 177.048 152.504 179.348 155.444 179.348C157.444 179.348 158.864 178.328 159.524 177.108V179.168H161.364V164.368H159.524V170.168C158.764 168.908 157.184 168.028 155.464 168.028C152.504 168.028 150.244 170.228 150.244 173.648ZM159.524 173.668C159.524 176.248 157.804 177.748 155.804 177.748C153.804 177.748 152.104 176.228 152.104 173.648C152.104 171.068 153.804 169.608 155.804 169.608C157.804 169.608 159.524 171.128 159.524 173.668ZM163.76 173.648C163.76 177.048 166.02 179.348 168.94 179.348C170.96 179.348 172.38 178.308 173.04 177.128V179.168H174.88V168.208H173.04V170.208C172.4 169.068 171 168.028 168.96 168.028C166.02 168.028 163.76 170.228 163.76 173.648ZM173.04 173.668C173.04 176.248 171.32 177.748 169.32 177.748C167.32 177.748 165.62 176.228 165.62 173.648C165.62 171.068 167.32 169.608 169.32 169.608C171.32 169.608 173.04 171.128 173.04 173.668ZM182.115 177.088L178.675 168.208H176.655L181.075 179.048L178.915 184.328H180.795L187.395 168.208H185.515L182.115 177.088ZM188.645 167.228H189.905L190.145 163.248H188.385L188.645 167.228ZM200.289 176.188C200.209 172.268 193.849 173.688 193.849 171.088C193.849 170.208 194.649 169.568 195.989 169.568C197.449 169.568 198.289 170.368 198.369 171.468H200.189C200.069 169.328 198.469 168.028 196.049 168.028C193.609 168.028 192.029 169.408 192.029 171.088C192.029 175.168 198.509 173.748 198.509 176.188C198.509 177.088 197.709 177.808 196.269 177.808C194.729 177.808 193.789 177.008 193.689 175.948H191.809C191.929 177.948 193.729 179.348 196.289 179.348C198.709 179.348 200.289 177.988 200.289 176.188ZM127.555 185.208H120.055V199.168H127.555V197.668H121.875V192.868H126.955V191.368H121.875V186.708H127.555V185.208ZM136.029 199.168H138.089L134.549 193.628L138.069 188.208H136.169L133.689 192.268L131.089 188.208H129.029L132.569 193.728L129.029 199.168H130.929L133.429 195.088L136.029 199.168ZM144.539 189.568C146.419 189.568 148.019 190.748 147.999 192.888H141.079C141.279 190.748 142.759 189.568 144.539 189.568ZM149.659 195.788H147.699C147.299 196.968 146.259 197.808 144.619 197.808C142.759 197.808 141.199 196.588 141.059 194.368H149.819C149.859 193.988 149.879 193.668 149.879 193.268C149.879 190.268 147.799 188.028 144.619 188.028C141.419 188.028 139.199 190.208 139.199 193.668C139.199 197.148 141.499 199.348 144.619 199.348C147.339 199.348 149.099 197.788 149.659 195.788ZM154.102 193.208C154.102 190.668 155.422 189.888 157.162 189.888H157.642V188.008C155.902 188.008 154.722 188.768 154.102 189.988V188.208H152.282V199.168H154.102V193.208ZM159.062 193.668C159.062 197.148 161.282 199.348 164.402 199.348C167.122 199.348 168.902 197.828 169.462 195.648H167.502C167.102 197.028 166.022 197.808 164.402 197.808C162.402 197.808 160.922 196.388 160.922 193.668C160.922 190.988 162.402 189.568 164.402 189.568C166.022 189.568 167.122 190.408 167.502 191.728H169.462C168.902 189.428 167.122 188.028 164.402 188.028C161.282 188.028 159.062 190.228 159.062 193.668ZM171.891 199.168H173.711V188.208H171.891V199.168ZM172.831 186.428C173.491 186.428 174.031 185.888 174.031 185.188C174.031 184.488 173.491 183.948 172.831 183.948C172.131 183.948 171.591 184.488 171.591 185.188C171.591 185.888 172.131 186.428 172.831 186.428ZM184.693 196.188C184.613 192.268 178.253 193.688 178.253 191.088C178.253 190.208 179.053 189.568 180.393 189.568C181.853 189.568 182.693 190.368 182.773 191.468H184.593C184.473 189.328 182.873 188.028 180.453 188.028C178.013 188.028 176.433 189.408 176.433 191.088C176.433 195.168 182.913 193.748 182.913 196.188C182.913 197.088 182.113 197.808 180.673 197.808C179.133 197.808 178.193 197.008 178.093 195.948H176.213C176.333 197.948 178.133 199.348 180.693 199.348C183.113 199.348 184.693 197.988 184.693 196.188ZM191.922 189.568C193.802 189.568 195.402 190.748 195.382 192.888H188.462C188.662 190.748 190.142 189.568 191.922 189.568ZM197.042 195.788H195.082C194.682 196.968 193.642 197.808 192.002 197.808C190.142 197.808 188.582 196.588 188.442 194.368H197.202C197.242 193.988 197.262 193.668 197.262 193.268C197.262 190.268 195.182 188.028 192.002 188.028C188.802 188.028 186.582 190.208 186.582 193.668C186.582 197.148 188.882 199.348 192.002 199.348C194.722 199.348 196.482 197.788 197.042 195.788ZM207.544 196.188C207.464 192.268 201.104 193.688 201.104 191.088C201.104 190.208 201.904 189.568 203.244 189.568C204.704 189.568 205.544 190.368 205.624 191.468H207.444C207.324 189.328 205.724 188.028 203.304 188.028C200.864 188.028 199.284 189.408 199.284 191.088C199.284 195.168 205.764 193.748 205.764 196.188C205.764 197.088 204.964 197.808 203.524 197.808C201.984 197.808 201.044 197.008 200.944 195.948H199.064C199.184 197.948 200.984 199.348 203.544 199.348C205.964 199.348 207.544 197.988 207.544 196.188Z" fill="black"/>
<path d="M228.512 267.511C234.652 263.319 234.157 254.01 227.502 250.531C225.054 249.252 222.32 249.096 219.881 249.875C189.407 269.672 150.351 272 117.357 254.753C67.6095 228.75 48.3552 167.35 74.3518 117.616C100.348 67.8822 161.316 48.7835 210.968 74.3731C211.192 74.5126 211.421 74.6507 211.657 74.7742C216.509 77.3104 222.494 75.4328 225.028 70.5851C227.562 65.7374 225.689 59.7484 220.837 57.2123C220.668 57.1238 220.326 56.9454 220.326 56.9454C161.026 26.1564 87.9909 49.0969 57.027 108.334C26.0631 167.571 48.9817 240.928 108.337 271.953C147.295 292.317 192.844 289.625 228.513 267.508L228.512 267.511Z" fill="url(#paint0_angular_4642_9509)"/>
<path d="M167.725 43.0957C160.291 43.1808 155.542 51.2023 159.152 57.7868C160.48 60.2087 162.67 61.8541 165.131 62.5581C201.469 62.9762 235.264 82.6896 253.163 115.335C280.151 164.556 262.137 226.33 212.929 253.31C163.722 280.291 102.393 262.387 75.2556 213.564C75.1463 213.323 75.0325 213.082 74.9043 212.848C72.2722 208.047 66.25 206.292 61.4537 208.922C56.6573 211.551 54.8962 217.574 57.5283 222.375C57.6201 222.542 57.8052 222.88 57.8052 222.88C90.0901 281.379 163.593 302.776 222.202 270.64C280.812 238.505 302.405 164.747 270.206 106.021C249.071 67.4751 209.67 44.4643 167.722 43.0973L167.725 43.0957Z" fill="#00B137"/>
<defs>
<radialGradient id="paint0_angular_4642_9509" cx="0" cy="0" r="1" gradientUnits="userSpaceOnUse" gradientTransform="translate(152.827 161.234) rotate(-151.105) scale(109.434 116.93)">
<stop offset="0.182292" stop-color="#6E6E6E" stop-opacity="0"/>
<stop offset="0.833333" stop-color="#6E6E6E"/>
</radialGradient>
</defs>
</svg>
