<svg width="12" height="14" viewBox="0 0 12 14" fill="none" xmlns="http://www.w3.org/2000/svg">
<path d="M11.2048 3.37932C11.2048 2.5807 10.5551 1.93104 9.75652 1.93104H8.01621V0.965521C8.01621 0.433174 7.58313 0 7.05068 0H4.15412C3.62177 0 3.1886 0.433174 3.1886 0.965521V1.93104H1.44587C0.648589 1.93104 0 2.57963 0 3.38174C0 4.00512 0.403967 4.54216 0.967556 4.74288L1.45328 12.6022C1.46298 13.3746 2.14563 14 2.98346 14H8.22141C9.05911 14 9.74204 13.3744 9.75173 12.6022L10.2376 4.74047C10.4394 4.66935 10.6269 4.55822 10.7835 4.40143C11.0552 4.12584 11.2048 3.76281 11.2048 3.37932ZM4.60254 2L5.60237 1.93104H7.05065H4.15409L4.60254 2ZM1.44583 2.89656H9.75656C10.0227 2.89656 10.2393 3.11302 10.2393 3.37932C10.2393 3.50742 10.1884 3.62959 10.0983 3.72106C10.0097 3.80969 9.89274 3.8598 9.77811 3.86208H1.43463C1.17587 3.8567 0.96559 3.64158 0.96559 3.37691C0.96559 3.11209 1.18087 2.89656 1.44583 2.89656ZM8.7869 12.5559C8.78623 12.5657 8.78596 12.5758 8.78596 12.5857C8.78596 12.8291 8.52733 13.0346 8.22116 13.0346H2.98321C2.67704 13.0346 2.41841 12.8291 2.41841 12.5857C2.41841 12.5758 2.41801 12.5657 2.41747 12.5559L1.93981 4.82761H9.26432L8.7869 12.5559Z" fill="white"/>
</svg>
