<svg width="17" height="20" viewBox="0 0 17 20" fill="none" xmlns="http://www.w3.org/2000/svg">
<path d="M15.9375 16.9023H1.0625C0.475697 16.9023 0 17.378 0 17.9648C0 18.5516 0.475697 19.0273 1.0625 19.0273H15.9375C16.5243 19.0273 17 18.5516 17 17.9648C17 17.378 16.5243 16.9023 15.9375 16.9023Z" fill="#231F20"/>
<path d="M0 15.8438V17.9688C0 18.5556 0.475697 19.0312 1.0625 19.0312C1.6493 19.0312 2.125 18.5556 2.125 17.9688V15.8438C2.125 15.2569 1.6493 14.7812 1.0625 14.7812C0.475697 14.7812 0 15.2569 0 15.8438Z" fill="#231F20"/>
<path d="M14.875 15.8438V17.9688C14.875 18.5556 15.3507 19.0312 15.9375 19.0312C16.5243 19.0312 17 18.5556 17 17.9688V15.8438C17 15.2569 16.5243 14.7812 15.9375 14.7812C15.3507 14.7812 14.875 15.2569 14.875 15.8438Z" fill="#231F20"/>
<path d="M8.49992 13.7188C8.27964 13.7204 8.06429 13.6536 7.88367 13.5275L3.63367 10.5313C3.40461 10.3688 3.24919 10.1222 3.20141 9.84544C3.15363 9.56869 3.21736 9.28427 3.37867 9.05438C3.45919 8.93947 3.56168 8.84164 3.68021 8.76655C3.79874 8.69146 3.93098 8.6406 4.06928 8.61689C4.20757 8.59318 4.3492 8.5971 4.48598 8.62842C4.62275 8.65974 4.75197 8.71785 4.86617 8.79938L8.49992 11.3388L12.1124 8.61875C12.3379 8.44968 12.6212 8.37708 12.9002 8.41693C13.1791 8.45678 13.4308 8.60582 13.5999 8.83125C13.769 9.05669 13.8416 9.34005 13.8017 9.61901C13.7619 9.89797 13.6129 10.1497 13.3874 10.3188L9.13742 13.5063C8.9535 13.6442 8.72981 13.7188 8.49992 13.7188Z" fill="#231F20"/>
<path d="M8.5 11.5938C8.21821 11.5938 7.94796 11.4818 7.7487 11.2826C7.54944 11.0833 7.4375 10.813 7.4375 10.5312V2.03125C7.4375 1.74946 7.54944 1.47921 7.7487 1.27995C7.94796 1.08069 8.21821 0.96875 8.5 0.96875C8.78179 0.96875 9.05204 1.08069 9.2513 1.27995C9.45056 1.47921 9.5625 1.74946 9.5625 2.03125V10.5312C9.5625 10.813 9.45056 11.0833 9.2513 11.2826C9.05204 11.4818 8.78179 11.5938 8.5 11.5938Z" fill="#231F20"/>
</svg>
