<svg width="14" height="8" viewBox="0 0 14 8" fill="none" xmlns="http://www.w3.org/2000/svg">
<path d="M0.328849 0.335878C0.109616 0.559797 0 0.844784 0 1.19084C0 1.5369 0.109616 1.82188 0.328849 2.0458L5.8296 7.66412C5.94918 7.78626 6.07872 7.87298 6.21824 7.92427C6.35775 7.97476 6.50722 8 6.66667 8C6.82611 8 6.98077 7.96947 7.13064 7.9084C7.27972 7.84733 7.40409 7.7659 7.50374 7.66412L13.0045 2.0458C13.2237 1.82188 13.3333 1.5369 13.3333 1.19084C13.3333 0.844784 13.2237 0.559797 13.0045 0.335878C12.7852 0.11196 12.5062 0 12.1674 0C11.8286 0 11.5496 0.11196 11.3303 0.335878L6.66667 5.09924L2.00299 0.335878C1.78376 0.11196 1.50473 0 1.16592 0C0.827105 0 0.548081 0.11196 0.328849 0.335878Z" fill="white"/>
</svg>
