<svg width="12" height="12" viewBox="0 0 12 12" fill="none" xmlns="http://www.w3.org/2000/svg">
<path d="M7.37233 4.01333L7.98558 4.62667L1.9464 10.6667H1.33315V10.0533L7.37233 4.01333ZM9.77201 0C9.60536 0 9.43205 0.0666666 9.3054 0.193333L8.08557 1.41333L10.5852 3.91333L11.8051 2.69333C11.8669 2.63166 11.9159 2.5584 11.9493 2.47775C11.9828 2.3971 12 2.31065 12 2.22333C12 2.13602 11.9828 2.04957 11.9493 1.96892C11.9159 1.88827 11.8669 1.81501 11.8051 1.75333L10.2453 0.193333C10.112 0.06 9.94532 0 9.77201 0ZM7.37233 2.12667L0 9.5V12H2.49966L9.87199 4.62667L7.37233 2.12667Z" fill="white"/>
</svg>
