<svg width="16" height="15" viewBox="0 0 16 15" fill="none" xmlns="http://www.w3.org/2000/svg">
<path d="M2.16813 0.234935C2.09365 0.160451 2.00522 0.101368 1.9079 0.0610577C1.81059 0.0207474 1.70628 0 1.60095 0C1.49561 0 1.39131 0.0207474 1.29399 0.0610577C1.19667 0.101368 1.10825 0.160451 1.03376 0.234935C0.883337 0.385361 0.798828 0.589383 0.798828 0.802118C0.798828 1.01485 0.883337 1.21887 1.03376 1.3693L5.53129 5.86682C5.24674 6.39616 5.14032 7.00308 5.22779 7.59765C5.31527 8.19221 5.59199 8.74277 6.01694 9.16772C6.44188 9.59267 6.99244 9.86938 7.58701 9.95686C8.18157 10.0443 8.7885 9.93792 9.31783 9.65337L13.8154 14.1509C13.8896 14.2258 13.978 14.2852 14.0753 14.3258C14.1727 14.3663 14.2771 14.3872 14.3825 14.3872C14.488 14.3872 14.5924 14.3663 14.6898 14.3258C14.7871 14.2852 14.8755 14.2258 14.9497 14.1509C15.0246 14.0766 15.084 13.9883 15.1246 13.8909C15.1651 13.7936 15.186 13.6892 15.186 13.5837C15.186 13.4783 15.1651 13.3738 15.1246 13.2765C15.084 13.1791 15.0246 13.0908 14.9497 13.0165L2.16813 0.234935ZM7.99174 8.39119C7.67394 8.39119 7.36915 8.26494 7.14443 8.04022C6.91971 7.8155 6.79347 7.51072 6.79347 7.19291C6.79347 7.19291 6.79347 7.15297 6.79347 7.13699L8.03967 8.3832L7.99174 8.39119Z" fill="#C8C8C8"/>
<path d="M8.16742 11.1871C4.73237 11.2669 2.47961 8.31918 1.77662 7.1928C2.27708 6.39451 2.87852 5.66418 3.56604 5.01993L2.39972 3.89355C1.49808 4.74311 0.725662 5.72007 0.107026 6.79338C0.0369119 6.91482 0 7.05258 0 7.1928C0 7.33303 0.0369119 7.47079 0.107026 7.59223C0.610301 8.46297 3.30242 12.7847 8.00765 12.7847H8.20736C9.09213 12.7585 9.96544 12.5774 10.7876 12.2495L9.52546 10.9873C9.0816 11.1041 8.62611 11.1711 8.16742 11.1871Z" fill="#C8C8C8"/>
<path d="M15.8759 6.79359C15.3647 5.90686 12.5447 1.45727 7.7756 1.60106C6.89083 1.62731 6.01752 1.80846 5.19531 2.13629L6.45749 3.39848C6.90136 3.28171 7.35685 3.21472 7.81554 3.19876C11.2426 3.11089 13.4954 6.06663 14.2063 7.19301C13.6935 7.99369 13.0786 8.72413 12.377 9.36588L13.5832 10.4923C14.4962 9.64494 15.2795 8.66786 15.9079 7.59244C15.9732 7.46821 16.0046 7.32897 15.999 7.18873C15.9934 7.04849 15.951 6.9122 15.8759 6.79359Z" fill="#C8C8C8"/>
</svg>
