<svg width="16" height="12" viewBox="0 0 16 12" fill="none" xmlns="http://www.w3.org/2000/svg">
<path d="M15.8929 5.59881C15.3811 4.71116 12.5662 0.25693 7.78409 0.400872C3.36184 0.512828 0.802861 4.39928 0.107137 5.59881C0.0369504 5.72037 0 5.85827 0 5.99865C0 6.13902 0.0369504 6.27692 0.107137 6.39849C0.610937 7.27014 3.30587 11.5964 8.01599 11.5964H8.21591C12.6382 11.4845 15.2051 7.59801 15.8929 6.39849C15.963 6.27692 16 6.13902 16 5.99865C16 5.85827 15.963 5.72037 15.8929 5.59881ZM8.17593 9.99706C4.7293 10.077 2.48219 7.1262 1.77847 5.99865C2.57815 4.71116 4.66533 2.0802 7.86405 2.00024C11.2947 1.91227 13.5498 4.8711 14.2615 5.99865C13.4378 7.28614 11.3747 9.91709 8.17593 9.99706Z" fill="black"/>
<path d="M8.00006 3.19946C7.44649 3.19946 6.90536 3.36361 6.44508 3.67116C5.98481 3.97871 5.62607 4.41583 5.41423 4.92726C5.20238 5.43869 5.14696 6.00146 5.25495 6.54439C5.36295 7.08732 5.62952 7.58603 6.02095 7.97746C6.41238 8.36889 6.91109 8.63546 7.45402 8.74346C7.99696 8.85145 8.55972 8.79603 9.07115 8.58419C9.58258 8.37234 10.0197 8.0136 10.3273 7.55333C10.6348 7.09305 10.7989 6.55192 10.7989 5.99835C10.7989 5.25604 10.5041 4.54413 9.97917 4.01924C9.45428 3.49434 8.74237 3.19946 8.00006 3.19946ZM8.00006 7.19787C7.76282 7.19787 7.5309 7.12752 7.33364 6.99572C7.13638 6.86391 6.98263 6.67657 6.89185 6.45739C6.80106 6.2382 6.7773 5.99702 6.82359 5.76433C6.86987 5.53165 6.98411 5.31792 7.15187 5.15016C7.31963 4.9824 7.53336 4.86816 7.76605 4.82188C7.99873 4.77559 8.23991 4.79935 8.4591 4.89014C8.67828 4.98092 8.86562 5.13467 8.99743 5.33193C9.12923 5.52919 9.19958 5.76111 9.19958 5.99835C9.19958 6.31648 9.07321 6.62159 8.84825 6.84654C8.6233 7.0715 8.31819 7.19787 8.00006 7.19787Z" fill="black"/>
</svg>
