<svg width="100" height="100" viewBox="0 0 100 100" fill="none" xmlns="http://www.w3.org/2000/svg">
<path d="M22.2215 8.42652C30.444 2.93245 40.111 0 50 0C56.5661 0 63.0679 1.29329 69.1342 3.80602C75.2005 6.31876 80.7124 10.0017 85.3553 14.6447C89.9983 19.2876 93.6813 24.7995 96.194 30.8658C98.7067 36.9321 100 43.4339 100 50C100 59.889 97.0676 69.556 91.5735 77.7785C86.0794 86.0009 78.2705 92.4096 69.1342 96.194C59.9979 99.9783 49.9445 100.968 40.2455 99.0392C30.5465 97.11 21.6373 92.3479 14.6447 85.3553C7.65206 78.3627 2.89002 69.4535 0.960758 59.7545C-0.968503 50.0554 0.0216641 40.0021 3.80605 30.8658C7.59043 21.7295 13.9991 13.9206 22.2215 8.42652Z" fill="#007C27"/>
<path d="M50 65.3144C54.2935 65.3144 58.4576 63.8448 61.8 61.15C62.8211 60.3013 64.1375 59.893 65.4597 60.0149C66.1143 60.0753 66.7507 60.264 67.3324 60.5702C67.9141 60.8765 68.4298 61.2944 68.85 61.8C69.6987 62.8211 70.107 64.1375 69.9851 65.4596C69.8632 66.7817 69.2211 68.0013 68.2 68.85C63.0933 73.113 56.6522 75.4482 50 75.4482C43.3478 75.4482 36.9067 73.113 31.8 68.85C30.7789 68.0013 30.1368 66.7817 30.0149 65.4596C29.893 64.1375 30.3013 62.8211 31.15 61.8C31.9987 60.7789 33.2183 60.1368 34.5404 60.0149C35.8625 59.893 37.179 60.3013 38.2 61.15C41.5424 63.8448 45.7066 65.3144 50 65.3144Z" fill="white"/>
<path d="M37.7779 44.1573C36.9556 44.7068 35.9889 45 35 45C33.674 45 32.4022 44.4732 31.4645 43.5355C30.5268 42.5979 30 41.3261 30 40C30 39.0111 30.2933 38.0444 30.8427 37.2221C31.3921 36.3999 32.173 35.759 33.0866 35.3806C34.0002 35.0022 35.0056 34.9032 35.9755 35.0961C36.9454 35.289 37.8363 35.7652 38.5356 36.4645C39.2348 37.1637 39.711 38.0546 39.904 39.0246C40.0969 39.9945 39.9979 40.9998 39.6194 41.9134C39.241 42.8271 38.6001 43.6079 37.7779 44.1573Z" fill="white"/>
<path d="M62.2222 35.8427C63.0444 35.2932 64.0111 35 65 35C66.3261 35 67.5979 35.5268 68.5356 36.4645C69.4732 37.4022 70 38.6739 70 40C70 40.9889 69.7068 41.9556 69.1574 42.7779C68.608 43.6001 67.8271 44.241 66.9134 44.6194C65.9998 44.9978 64.9945 45.0969 64.0246 44.9039C63.0547 44.711 62.1638 44.2348 61.4645 43.5355C60.7652 42.8363 60.289 41.9454 60.0961 40.9755C59.9032 40.0055 60.0022 39.0002 60.3806 38.0866C60.7591 37.173 61.3999 36.3921 62.2222 35.8427Z" fill="white"/>
</svg>
