<svg width="100" height="100" viewBox="0 0 100 100" fill="none" xmlns="http://www.w3.org/2000/svg">
<path d="M50 0C40.111 0 30.444 2.93245 22.2215 8.42652C13.9991 13.9206 7.59043 21.7295 3.80605 30.8658C0.0216641 40.0021 -0.968503 50.0554 0.960758 59.7545C2.89002 69.4535 7.65206 78.3627 14.6447 85.3553C21.6373 92.3479 30.5465 97.11 40.2455 99.0392C49.9445 100.968 59.9979 99.9783 69.1342 96.194C78.2705 92.4096 86.0794 86.0009 91.5735 77.7785C97.0676 69.556 100 59.889 100 50C100 43.4339 98.7067 36.9321 96.194 30.8658C93.6813 24.7995 89.9983 19.2876 85.3553 14.6447C80.7124 10.0017 75.2005 6.31876 69.1342 3.80602C63.0679 1.29329 56.5661 0 50 0Z" fill="#E10000"/>
<path d="M50 70.1275C45.7066 70.1275 41.5424 71.5971 38.2 74.2919C37.179 75.1406 35.8625 75.5489 34.5404 75.427C33.8858 75.3666 33.2494 75.1779 32.6677 74.8716C32.086 74.5653 31.5703 74.1475 31.15 73.6419C30.3013 72.6208 29.893 71.3044 30.0149 69.9823C30.1368 68.6601 30.7789 67.4406 31.8 66.5919C36.9067 62.3289 43.3478 59.9937 50 59.9937C56.6522 59.9937 63.0933 62.3289 68.2 66.5919C69.2211 67.4406 69.8632 68.6601 69.9851 69.9823C70.107 71.3044 69.6987 72.6208 68.85 73.6419C68.0013 74.663 66.7818 75.3051 65.4597 75.427C64.1375 75.5489 62.8211 75.1406 61.8 74.2919C58.4576 71.5971 54.2935 70.1275 50 70.1275Z" fill="white"/>
<path d="M37.7779 44.1573C36.9556 44.7068 35.9889 45 35 45C33.6739 45 32.4021 44.4732 31.4645 43.5355C30.5268 42.5979 30 41.3261 30 40C30 39.0111 30.2932 38.0444 30.8427 37.2221C31.3921 36.3999 32.1729 35.759 33.0866 35.3806C34.0002 35.0022 35.0055 34.9032 35.9755 35.0961C36.9454 35.289 37.8363 35.7652 38.5355 36.4645C39.2348 37.1637 39.711 38.0546 39.9039 39.0246C40.0968 39.9945 39.9978 40.9998 39.6194 41.9134C39.241 42.8271 38.6001 43.6079 37.7779 44.1573Z" fill="white"/>
<path d="M62.2221 35.8427C63.0444 35.2932 64.0111 35 65 35C66.3261 35 67.5978 35.5268 68.5355 36.4645C69.4732 37.4022 70 38.6739 70 40C70 40.9889 69.7068 41.9556 69.1573 42.7779C68.6079 43.6001 67.827 44.241 66.9134 44.6194C65.9998 44.9978 64.9944 45.0969 64.0245 44.9039C63.0546 44.711 62.1637 44.2348 61.4645 43.5355C60.7652 42.8363 60.289 41.9454 60.0961 40.9755C59.9031 40.0055 60.0022 39.0002 60.3806 38.0866C60.759 37.173 61.3999 36.3921 62.2221 35.8427Z" fill="white"/>
</svg>
