<svg width="98" height="98" viewBox="0 0 98 98" fill="none" xmlns="http://www.w3.org/2000/svg">
<g clip-path="url(#clip0_4445_11037)">
<path d="M49 98C76.062 98 98 76.062 98 49C98 21.938 76.062 0 49 0C21.938 0 0 21.938 0 49C0 76.062 21.938 98 49 98Z" fill="#F9F9F9"/>
<path d="M77.2333 37.4174H60.2228C59.7911 37.4174 59.4635 37.0088 59.581 36.5925C60.2729 34.1352 60.3327 31.4735 60.3327 28.9565C60.3327 27.5669 60.4001 25.9884 60.246 24.4678C60.0898 22.9201 59.7082 21.4303 58.7966 20.2546C57.7867 18.9499 56.2795 17.9766 54.6028 17.9766C50.7173 17.9766 50.1025 21.7849 49.7402 24.8667C49.3181 28.465 49.1504 32.1866 47.5585 35.5035C46.4445 37.826 44.866 39.8207 42.3875 40.7979C40.4814 41.5495 39.0841 42.1354 37.0739 42.5267C36.7636 42.5864 36.5381 42.8543 36.5381 43.1723V68.3238C36.5381 68.6899 36.8349 68.9867 37.2011 68.9867H44.1606C44.3726 68.9867 44.5653 69.0908 44.6925 69.2604C46.0648 71.101 48.2581 72.294 50.7308 72.294H72.5345C75.7165 72.294 78.3203 69.6902 78.3203 66.5082C78.3203 65.6853 78.1218 64.9066 77.771 64.2147C77.6322 63.941 77.7036 63.6076 77.9425 63.4168C79.1221 62.4763 79.8833 60.3312 79.8833 58.7142V58.0512C79.8833 57.2282 79.6848 56.4496 79.3341 55.7577C79.1953 55.484 79.2666 55.1506 79.5056 54.9598C80.6851 54.0192 81.4483 52.5738 81.4483 50.9567V50.2937C81.4483 49.4708 81.2498 48.6921 80.899 48.0002C80.7603 47.7266 80.8316 47.3931 81.0725 47.2023C82.252 46.2618 83.0152 44.8163 83.0152 43.1993C83.0152 40.0173 80.4114 37.4135 77.2294 37.4135L77.2333 37.4174Z" fill="#007C27"/>
<path d="M32.4728 39.6875H20.1072C19.8155 39.6875 19.5791 39.9239 19.5791 40.2156V71.0314C19.5791 71.323 19.8155 71.5595 20.1072 71.5595H32.4728C32.7645 71.5595 33.0009 71.323 33.0009 71.0314V40.2156C33.0009 39.9239 32.7645 39.6875 32.4728 39.6875Z" fill="#007C27"/>
</g>
<defs>
<clipPath id="clip0_4445_11037">
<rect width="98" height="98" fill="white"/>
</clipPath>
</defs>
</svg>
