<svg width="17" height="17" viewBox="0 0 17 17" fill="none" xmlns="http://www.w3.org/2000/svg">
<path fill-rule="evenodd" clip-rule="evenodd" d="M16.2301 7.64978L12.1128 3.53257C11.9646 3.38435 11.7588 3.29377 11.5282 3.29377C11.0753 3.29377 10.7048 3.66432 10.7048 4.11721C10.7048 4.34778 10.7953 4.55364 10.9436 4.70186L13.6609 7.41098H4.94065C4.48776 7.41098 4.11721 7.78153 4.11721 8.23442C4.11721 8.68732 4.48776 9.05787 4.94065 9.05787H13.6609L10.9518 11.767C10.7953 11.9152 10.7048 12.1211 10.7048 12.3516C10.7048 12.8045 11.0753 13.1751 11.5282 13.1751C11.7588 13.1751 11.9646 13.0845 12.1128 12.9363L16.2301 8.81907C16.3783 8.67085 16.4688 8.46499 16.4688 8.23442C16.4688 8.00386 16.3783 7.798 16.2301 7.64978ZM7.41098 14.822H1.64688V1.64688H7.41098C7.86388 1.64688 8.23442 1.27634 8.23442 0.823442C8.23442 0.370549 7.86388 0 7.41098 0H0.823442C0.370549 0 0 0.370549 0 0.823442V15.6454C0 16.0983 0.370549 16.4688 0.823442 16.4688H7.41098C7.86388 16.4688 8.23442 16.0983 8.23442 15.6454C8.23442 15.1925 7.86388 14.822 7.41098 14.822Z" fill="black"/>
</svg>
