<svg width="358" height="145" viewBox="0 0 358 145" fill="none" xmlns="http://www.w3.org/2000/svg">
<path d="M296.431 99.4258H301.314C303.69 99.4258 305.97 100.37 307.65 102.05C309.331 103.731 310.275 106.01 310.275 108.387C310.278 109.888 309.904 111.367 309.188 112.686C308.471 114.006 307.434 115.124 306.172 115.938L296.104 122.419L296.431 99.4258Z" fill="#59A562"/>
<path d="M295.758 123.557L296.098 98.7949H301.604C303.665 98.8061 305.668 99.4814 307.316 100.721C308.964 101.96 310.168 103.697 310.751 105.674C311.333 107.652 311.263 109.765 310.551 111.699C309.838 113.634 308.521 115.287 306.795 116.415L295.758 123.557ZM297.369 100.053L297.079 121.228L306.147 115.383C307.657 114.407 308.811 112.968 309.436 111.283C310.062 109.597 310.125 107.754 309.617 106.03C309.108 104.305 308.056 102.791 306.616 101.714C305.176 100.637 303.427 100.054 301.629 100.053H297.369Z" fill="#463E3B"/>
<path d="M297.268 102.57H300.527C302.111 102.57 303.63 103.199 304.75 104.319C305.87 105.439 306.499 106.958 306.499 108.542C306.502 109.543 306.252 110.529 305.774 111.409C305.295 112.289 304.604 113.034 303.762 113.576L297.06 117.893L297.268 102.57Z" fill="white"/>
<path d="M296.387 119.045L296.62 101.941H300.496C301.922 101.941 303.309 102.403 304.451 103.257C305.593 104.111 306.427 105.312 306.829 106.68C307.232 108.048 307.18 109.509 306.683 110.845C306.186 112.181 305.269 113.321 304.07 114.093L296.387 119.045ZM297.891 103.2L297.708 116.717L303.422 113.035C304.393 112.411 305.135 111.489 305.538 110.407C305.941 109.325 305.983 108.142 305.657 107.034C305.331 105.927 304.655 104.955 303.73 104.263C302.805 103.572 301.682 103.199 300.527 103.2H297.891Z" fill="#463E3B"/>
<path d="M292.655 137.18C304.297 128.056 301.15 92.502 301.15 92.502H261.192L246.718 120.819L249.865 137.602L292.655 137.18Z" fill="#76D98C"/>
<path d="M297.601 92.1875H296.116C296.116 92.1875 299.262 127.741 287.621 136.866L249.235 137.243V137.287L292.026 136.866C301.622 129.315 301.169 103.86 300.716 95.1388C300.667 94.344 300.318 93.5975 299.74 93.0498C299.162 92.5021 298.397 92.1939 297.601 92.1875Z" fill="#6DCC7E"/>
<path d="M293.045 137.049L292.271 136.061C301.616 128.736 301.119 103.037 300.741 95.3281C300.706 94.5663 300.378 93.8475 299.826 93.3213C299.274 92.795 298.54 92.5019 297.777 92.5027H261.191V91.2441H297.777C298.862 91.2445 299.905 91.6624 300.69 92.411C301.475 93.1597 301.942 94.1817 301.993 95.2652C302.484 105.334 302.597 129.56 293.045 137.049Z" fill="#463E3B"/>
<path d="M105.132 134.034H43.8351L25.3975 115.603L26.291 114.709L44.3511 132.775H105.132V134.034Z" fill="#463E3B"/>
<path d="M0.629395 136.553H357.08V143.475H0.629395V136.553Z" fill="#EA9178"/>
<path d="M1.14502 136.949H357.596V138.139H1.14502V136.949Z" fill="#A76C59"/>
<path opacity="0.2" d="M353.883 135.955V141.65H2.91355V135.955H0.169922V142.877H356.627V135.955H353.883Z" fill="white"/>
<path d="M357.709 144.102H0V135.922H357.709V144.102ZM1.25854 142.844H356.451V137.18H1.25854V142.844Z" fill="#463E3B"/>
<g opacity="0.15">
<path d="M39.0588 36.4972H0.0439453V24.541H39.0588V36.4972ZM1.30249 35.2386H37.8002V25.7996H1.30249V35.2386Z" fill="#463E3B"/>
<path d="M76.8151 36.4972H37.8003V24.541H76.8151V36.4972ZM39.0588 35.2386H75.5566V25.7996H39.0588V35.2386Z" fill="#463E3B"/>
<path d="M57.3078 25.7999H18.293V13.8438H57.3078V25.7999ZM19.5515 24.5414H56.0493V15.1023H19.5515V24.5414Z" fill="#463E3B"/>
</g>
<g opacity="0.15">
<path d="M275.665 37.7569H236.65V25.8008H275.665V37.7569ZM237.908 36.4984H274.406V27.0593H237.908V36.4984Z" fill="#463E3B"/>
<path d="M313.421 37.7569H274.406V25.8008H313.421V37.7569ZM275.665 36.4984H312.163V27.0593H275.665V36.4984Z" fill="#463E3B"/>
<path d="M293.914 27.0597H254.899V15.1035H293.914V27.0597ZM256.157 25.8011H292.655V16.3621H256.157V25.8011Z" fill="#463E3B"/>
</g>
<g opacity="0.15">
<path d="M320.343 74.8819H281.329V62.9258H320.343V74.8819ZM282.587 73.6234H319.085V64.1843H282.587V73.6234Z" fill="#463E3B"/>
<path d="M348.661 86.2081H309.646V74.252H348.661V86.2081ZM310.905 84.9496H347.402V75.5105H310.905V84.9496Z" fill="#463E3B"/>
</g>
<g opacity="0.15">
<path d="M74.298 98.1651H35.2832V86.209H74.298V98.1651ZM36.5417 96.9066H73.0395V87.4675H36.5417V96.9066Z" fill="#463E3B"/>
<path d="M102.615 109.491H63.6006V97.5352H102.615V109.491ZM64.8591 108.233H101.357V98.7937H64.8591V108.233Z" fill="#463E3B"/>
</g>
<path d="M17.3237 91.786C26.1615 91.786 33.326 84.6215 33.326 75.7836C33.326 66.9458 26.1615 59.7812 17.3237 59.7812C8.4858 59.7812 1.32129 66.9458 1.32129 75.7836C1.32129 84.6215 8.4858 91.786 17.3237 91.786Z" fill="#E8F0F9"/>
<path d="M17.3236 59.7813C15.2687 59.7774 13.2324 60.1705 11.3267 60.9391C15.2486 59.9428 19.4023 60.4687 22.9521 62.4109C26.502 64.3531 29.1847 67.5676 30.4605 71.4077C31.7362 75.2478 31.5105 79.4286 29.8286 83.109C28.1467 86.7893 25.1334 89.6962 21.395 91.2449C25.1356 90.2348 28.3829 87.9024 30.5346 84.6802C32.6863 81.4581 33.5965 77.565 33.0963 73.7229C32.596 69.8808 30.7193 66.3505 27.8143 63.7867C24.9092 61.223 21.1729 59.7999 17.2984 59.7813H17.3236Z" fill="#BCD9EA"/>
<path d="M5.71999 75.4699C5.72055 71.552 7.15839 67.7705 9.761 64.842C12.3636 61.9135 15.9501 60.0415 19.8408 59.5808C17.5968 59.3162 15.3221 59.5298 13.1665 60.2076C11.0109 60.8855 9.02334 62.0121 7.33457 63.5134C5.64579 65.0148 4.29412 66.8567 3.36851 68.9181C2.44291 70.9794 1.96436 73.2134 1.96436 75.4731C1.96436 77.7327 2.44291 79.9667 3.36851 82.0281C4.29412 84.0894 5.64579 85.9314 7.33457 87.4327C9.02334 88.934 11.0109 90.0607 13.1665 90.7385C15.3221 91.4163 17.5968 91.63 19.8408 91.3653C15.9491 90.9046 12.3617 89.0317 9.75891 86.1018C7.15615 83.172 5.71901 79.3889 5.71999 75.4699Z" fill="white"/>
<path d="M17.3238 92.4215C14.0354 92.4165 10.8223 91.4369 8.09059 89.6063C5.35884 87.7758 3.23104 85.1765 1.97609 82.1371C0.721137 79.0976 0.395364 75.7543 1.03994 72.5298C1.68452 69.3052 3.27051 66.3441 5.59748 64.0206C7.92446 61.6972 10.888 60.1156 14.1135 59.4759C17.339 58.8362 20.6818 59.1671 23.7194 60.4266C26.757 61.6862 29.353 63.8179 31.1794 66.5524C33.0058 69.2869 33.9806 72.5015 33.9806 75.7898C33.9756 80.2037 32.2183 84.4349 29.0949 87.5536C25.9715 90.6722 21.7376 92.4232 17.3238 92.4215ZM17.3238 60.4104C14.2846 60.4154 11.3151 61.3211 8.79045 63.0131C6.26581 64.705 4.29931 67.1073 3.13943 69.9165C1.97955 72.7256 1.67834 75.8155 2.27384 78.7958C2.86934 81.776 4.33485 84.5129 6.48518 86.6606C8.63552 88.8083 11.3742 90.2705 14.3552 90.8623C17.3362 91.4542 20.4257 91.1491 23.2334 89.9858C26.0411 88.8225 28.441 86.8531 30.1299 84.3263C31.8188 81.7996 32.7208 78.829 32.722 75.7898C32.7187 71.7087 31.0947 67.796 28.2072 64.912C25.3196 62.028 21.4049 60.4088 17.3238 60.4104Z" fill="#463E3B"/>
<path d="M11.5029 67.1192H23.1444C23.7218 67.1192 24.2756 67.3486 24.6839 67.7569C25.0923 68.1652 25.3217 68.719 25.3217 69.2965V75.1172C25.3217 77.2401 24.4783 79.276 22.9772 80.7771C21.4761 82.2782 19.4402 83.1215 17.3173 83.1215C15.1944 83.1215 13.1585 82.2782 11.6574 80.7771C10.1563 79.276 9.31299 77.2401 9.31299 75.1172V69.2965C9.31298 69.0095 9.36971 68.7253 9.47992 68.4603C9.59012 68.1953 9.75163 67.9548 9.95514 67.7524C10.1587 67.5501 10.4002 67.39 10.6658 67.2813C10.9314 67.1726 11.2159 67.1175 11.5029 67.1192Z" fill="#463E3B"/>
<path d="M16.6943 79.7852H17.9529V106.46H16.6943V79.7852Z" fill="#463E3B"/>
<path d="M19.8599 105.643H22.0875V105.957H19.8599V105.643Z" fill="#EA2424"/>
<path d="M19.5308 106.938L19.6678 106.654L21.673 107.625L21.536 107.908L19.5308 106.938Z" fill="#EA2424"/>
<path d="M18.6079 107.76L18.9051 107.656L19.6369 109.76L19.3398 109.864L18.6079 107.76Z" fill="#EA2424"/>
<path d="M21.8984 115.951H24.1261V116.266H21.8984V115.951Z" fill="#EA2424"/>
<path d="M22.312 114.283L22.449 114L24.4543 114.97L24.3172 115.253L22.312 114.283Z" fill="#EA2424"/>
<path d="M24.3589 112.137L24.6561 112.033L25.3879 114.137L25.0907 114.241L24.3589 112.137Z" fill="#EA2424"/>
<path d="M91.7979 0.628906H261.034C262.932 0.628906 264.752 1.38272 266.093 2.7245C267.435 4.06629 268.189 5.88615 268.189 7.78372V127.742H84.6431V7.78372C84.6431 6.84414 84.8281 5.91376 85.1877 5.04569C85.5473 4.17763 86.0743 3.38889 86.7387 2.7245C87.4031 2.06012 88.1918 1.5331 89.0599 1.17353C89.9279 0.813971 90.8583 0.628906 91.7979 0.628906Z" fill="#E8F0F9"/>
<path d="M90.0298 120.688H262.45V122.418H90.0298V120.688Z" fill="#BCD9EA"/>
<path d="M261.034 0.628906H91.7979C90.8583 0.628906 89.9279 0.813971 89.0599 1.17353C88.1918 1.5331 87.4031 2.06012 86.7387 2.7245C86.0743 3.38889 85.5473 4.17763 85.1877 5.04569C84.8281 5.91376 84.6431 6.84414 84.6431 7.78372V11.5594C84.6431 10.6198 84.8281 9.68938 85.1877 8.82132C85.5473 7.95326 86.0743 7.16452 86.7387 6.50013C87.4031 5.83575 88.1918 5.30873 89.0599 4.94916C89.9279 4.5896 90.8583 4.40453 91.7979 4.40453H261.034C262.932 4.40454 264.752 5.15834 266.093 6.50013C267.435 7.84192 268.189 9.66178 268.189 11.5594V7.78372C268.189 5.88615 267.435 4.06629 266.093 2.7245C264.752 1.38272 262.932 0.628906 261.034 0.628906Z" fill="white"/>
<path d="M268.699 128.371H83.9136V7.78409C83.9152 5.72013 84.7359 3.74119 86.1953 2.28175C87.6548 0.822309 89.6337 0.0016665 91.6977 0L260.934 0C262.995 0.00665748 264.969 0.829502 266.424 2.2884C267.879 3.7473 268.697 5.72339 268.699 7.78409V128.371ZM85.1595 127.113H267.441V7.78409C267.439 6.05718 266.754 4.4012 265.534 3.17832C264.315 1.95544 262.661 1.2652 260.934 1.25854H91.6977C89.9675 1.26021 88.3087 1.94826 87.0852 3.17167C85.8618 4.39509 85.1738 6.05392 85.1721 7.78409L85.1595 127.113Z" fill="#463E3B"/>
<path d="M90.2061 11.957H261.997V120.821H90.2061V11.957Z" fill="white"/>
<path opacity="0.1" d="M90.8354 11.957H261.997V15.1034H90.8354V11.957Z" fill="#463E3B"/>
<path d="M262.406 121.449H90.2061V11.3262H262.406V121.449ZM91.452 120.19H261.148V12.5847H91.4646L91.452 120.19Z" fill="#463E3B"/>
<path d="M59.1953 127.742H292.97V131.304C292.97 132.863 292.35 134.358 291.248 135.46C290.146 136.562 288.651 137.181 287.092 137.181H66.583C64.6236 137.181 62.7446 136.403 61.3591 135.017C59.9737 133.632 59.1953 131.753 59.1953 129.794V127.742Z" fill="#E8F0F9"/>
<path d="M59.8691 127.742H293.637V131.518H59.8691V127.742Z" fill="#BCD9EA"/>
<path d="M285.866 137.811H66.7406C64.6316 137.809 62.6094 136.971 61.1181 135.479C59.6268 133.988 58.7883 131.966 58.7866 129.857V127.113H293.82V129.857C293.818 131.966 292.979 133.988 291.488 135.479C289.997 136.971 287.975 137.809 285.866 137.811ZM60.0515 128.372V129.857C60.0531 131.631 60.7582 133.332 62.0121 134.587C63.266 135.842 64.9665 136.549 66.7406 136.552H285.866C287.641 136.551 289.343 135.845 290.598 134.589C291.853 133.334 292.559 131.632 292.561 129.857V128.372H60.0515Z" fill="#463E3B"/>
<path d="M174.686 7.48198C175.256 7.48198 175.718 7.01993 175.718 6.44997C175.718 5.88001 175.256 5.41797 174.686 5.41797C174.116 5.41797 173.654 5.88001 173.654 6.44997C173.654 7.01993 174.116 7.48198 174.686 7.48198Z" fill="#FF4E00"/>
<path d="M174.686 7.7968C174.419 7.7968 174.159 7.71782 173.937 7.56985C173.716 7.42188 173.543 7.21156 173.441 6.96549C173.339 6.71943 173.313 6.44866 173.365 6.18744C173.417 5.92622 173.545 5.68627 173.733 5.49794C173.922 5.30961 174.162 5.18135 174.423 5.12939C174.684 5.07743 174.955 5.1041 175.201 5.20602C175.447 5.30795 175.657 5.48055 175.805 5.702C175.953 5.92346 176.032 6.18382 176.032 6.45016C176.032 6.80731 175.89 7.14983 175.638 7.40238C175.385 7.65492 175.043 7.7968 174.686 7.7968ZM174.686 5.73279C174.544 5.73279 174.405 5.77486 174.287 5.85369C174.169 5.93251 174.077 6.04455 174.023 6.17563C173.968 6.30671 173.954 6.45095 173.982 6.59011C174.01 6.72926 174.078 6.85709 174.178 6.95741C174.279 7.05774 174.406 7.12606 174.546 7.15374C174.685 7.18142 174.829 7.16722 174.96 7.11292C175.091 7.05862 175.203 6.96668 175.282 6.84871C175.361 6.73074 175.403 6.59204 175.403 6.45016C175.403 6.2599 175.327 6.07743 175.193 5.9429C175.058 5.80837 174.876 5.73279 174.686 5.73279Z" fill="#463E3B"/>
<path d="M189.316 132.362H163.768C160.541 132.371 157.378 131.46 154.65 129.738L152.762 128.536L153.448 127.479L155.335 128.68C157.859 130.274 160.784 131.114 163.768 131.103H189.316C192.957 131.13 196.49 129.864 199.284 127.529L200.108 128.479C197.095 131.029 193.263 132.407 189.316 132.362Z" fill="#463E3B"/>
<path d="M130.193 37.6802V50.7302L121.613 37.6802H116.483V58.7402H121.613V45.7502L130.193 58.7402H135.323V37.6802H130.193ZM155.421 50.3702C155.421 45.0602 151.641 41.7602 146.721 41.7602C141.831 41.7602 138.021 45.0602 138.021 50.3702C138.021 55.6802 141.741 58.9802 146.661 58.9802C151.581 58.9802 155.421 55.6802 155.421 50.3702ZM143.241 50.3702C143.241 47.5202 144.861 46.2002 146.721 46.2002C148.521 46.2002 150.201 47.5202 150.201 50.3702C150.201 53.1902 148.491 54.5402 146.661 54.5402C144.801 54.5402 143.241 53.1902 143.241 50.3702ZM172.39 37.6802H164.5V58.7402H172.39C179.11 58.7402 183.43 54.4502 183.43 48.2102C183.43 41.9402 179.11 37.6802 172.39 37.6802ZM169.63 54.3002V42.0602H172.06C175.93 42.0602 178.21 44.3402 178.21 48.2102C178.21 52.0802 175.93 54.3002 172.06 54.3002H169.63ZM185.277 50.3402C185.277 55.6202 188.547 58.9802 192.627 58.9802C195.117 58.9802 196.887 57.8402 197.817 56.3702V58.7402H202.947V42.0002H197.817V44.3702C196.917 42.9002 195.147 41.7602 192.657 41.7602C188.547 41.7602 185.277 45.0602 185.277 50.3402ZM197.817 50.3702C197.817 53.0402 196.107 54.5102 194.157 54.5102C192.237 54.5102 190.497 53.0102 190.497 50.3402C190.497 47.6702 192.237 46.2302 194.157 46.2302C196.107 46.2302 197.817 47.7002 197.817 50.3702ZM207.468 52.9202C207.468 57.2702 209.898 58.7402 213.378 58.7402H215.988V54.3902H214.158C213.018 54.3902 212.598 53.9702 212.598 52.9802V46.2602H215.958V42.0002H212.598V37.9202H207.468V42.0002H205.428V46.2602H207.468V52.9202ZM217.826 50.3402C217.826 55.6202 221.096 58.9802 225.176 58.9802C227.666 58.9802 229.436 57.8402 230.366 56.3702V58.7402H235.496V42.0002H230.366V44.3702C229.466 42.9002 227.696 41.7602 225.206 41.7602C221.096 41.7602 217.826 45.0602 217.826 50.3402ZM230.366 50.3702C230.366 53.0402 228.656 54.5102 226.706 54.5102C224.786 54.5102 223.046 53.0102 223.046 50.3402C223.046 47.6702 224.786 46.2302 226.706 46.2302C228.656 46.2302 230.366 47.7002 230.366 50.3702ZM129.695 98.7402H134.825V90.2202H141.245V86.2302H134.825V81.7902H143.405V77.6802H129.695V98.7402ZM162.482 90.3702C162.482 85.0602 158.702 81.7602 153.782 81.7602C148.892 81.7602 145.082 85.0602 145.082 90.3702C145.082 95.6802 148.802 98.9802 153.722 98.9802C158.642 98.9802 162.482 95.6802 162.482 90.3702ZM150.302 90.3702C150.302 87.5202 151.922 86.2002 153.782 86.2002C155.582 86.2002 157.262 87.5202 157.262 90.3702C157.262 93.1902 155.552 94.5402 153.722 94.5402C151.862 94.5402 150.302 93.1902 150.302 90.3702ZM181.733 82.0002H176.603V91.0902C176.603 93.3702 175.343 94.6302 173.363 94.6302C171.443 94.6302 170.153 93.3702 170.153 91.0902V82.0002H165.053V91.7802C165.053 96.2502 167.663 98.9202 171.533 98.9202C173.783 98.9202 175.583 97.9002 176.603 96.4602V98.7402H181.733V82.0002ZM196.968 98.7402H202.068V88.9602C202.068 84.4602 199.488 81.8202 195.618 81.8202C193.368 81.8202 191.568 82.8102 190.548 84.2202V82.0002H185.418V98.7402H190.548V89.6502C190.548 87.3702 191.808 86.1102 193.758 86.1102C195.708 86.1102 196.968 87.3702 196.968 89.6502V98.7402ZM204.613 90.3402C204.613 95.6202 207.883 98.9802 211.993 98.9802C214.453 98.9802 216.223 97.8702 217.153 96.3402V98.7402H222.283V76.5402H217.153V84.3102C216.133 82.7802 214.213 81.7602 211.993 81.7602C207.883 81.7602 204.613 85.0602 204.613 90.3402ZM217.153 90.3702C217.153 93.0402 215.443 94.5102 213.493 94.5102C211.573 94.5102 209.833 93.0102 209.833 90.3402C209.833 87.6702 211.573 86.2302 213.493 86.2302C215.443 86.2302 217.153 87.7002 217.153 90.3702Z" fill="#939393"/>
<path d="M65.4883 23.5968C65.7387 23.5968 65.9788 23.4974 66.1558 23.3203C66.3328 23.1433 66.4322 22.9032 66.4322 22.6529C66.4322 22.4026 66.3328 22.1625 66.1558 21.9854C65.9788 21.8084 65.7387 21.709 65.4883 21.709C65.238 21.709 64.9979 21.8084 64.8209 21.9854C64.6439 22.1625 64.5444 22.4026 64.5444 22.6529C64.5444 22.9032 64.6439 23.1433 64.8209 23.3203C64.9979 23.4974 65.238 23.5968 65.4883 23.5968Z" fill="#E8F0F9"/>
<path opacity="0.35" d="M280.623 87.809C279.106 86.7185 277.792 85.3703 276.741 83.8258C276.229 82.9958 275.907 82.0633 275.797 81.0947C275.669 80.0908 275.831 79.0713 276.262 78.156C276.492 77.6852 276.803 77.2591 277.181 76.8975C277.541 76.5719 277.923 76.2732 278.326 76.0039C279.069 75.4816 279.805 74.9656 279.981 74.3426C280.158 73.7197 279.881 73.0463 279.352 72.3227C278.785 71.5652 278.276 70.7658 277.829 69.9314C276.082 66.496 275.635 62.5449 276.571 58.8059C277.02 56.9611 277.84 55.2269 278.981 53.7088C280.105 52.205 281.605 51.0225 283.329 50.2793C282.545 50.7482 281.818 51.3079 281.165 51.9469C280.528 52.5871 279.964 53.2963 279.484 54.0612C278.522 55.5807 277.851 57.2667 277.508 59.0325C276.817 62.5415 277.326 66.1812 278.956 69.3651C279.369 70.1574 279.842 70.9169 280.372 71.6368C280.674 72.0548 280.917 72.5121 281.095 72.996C281.294 73.5578 281.294 74.171 281.095 74.7328C280.894 75.2595 280.555 75.7224 280.114 76.0731C279.74 76.3787 279.347 76.6604 278.937 76.9164C278.198 77.313 277.573 77.894 277.125 78.6028C276.736 79.3483 276.559 80.1865 276.615 81.0255C276.649 81.9027 276.874 82.7618 277.276 83.5426C278.037 85.1472 279.396 86.4687 280.623 87.809Z" fill="#141414"/>
<path opacity="0.35" d="M285.651 83.8824C286.91 82.4477 287.099 80.5473 286.859 78.8483C286.62 77.1492 285.84 75.4313 285.186 73.6694C284.848 72.7669 284.583 71.839 284.393 70.8943C284.22 69.9355 284.165 68.9592 284.229 67.987C284.337 66.0638 284.947 64.2024 285.997 62.5879C285.429 64.3338 285.163 66.1641 285.211 67.9996C285.291 69.798 285.681 71.5691 286.362 73.2352C286.992 74.9594 287.74 76.7591 287.828 78.7602C287.882 79.7461 287.736 80.7326 287.401 81.6611C287.072 82.5705 286.458 83.3496 285.651 83.8824Z" fill="#141414"/>
<path opacity="0.35" d="M291.315 69.4098C292.573 67.975 292.762 66.0746 292.523 64.3756C292.284 62.6766 291.504 60.9587 290.849 59.1967C290.511 58.2943 290.246 57.3663 290.056 56.4216C289.883 55.4628 289.829 54.4865 289.893 53.5144C290.001 51.5912 290.61 49.7297 291.661 48.1152C291.092 49.8611 290.826 51.6914 290.874 53.527C290.955 55.3253 291.344 57.0964 292.026 58.7625C292.655 60.4867 293.404 62.2864 293.492 64.2875C293.546 65.2734 293.4 66.26 293.064 67.1885C292.735 68.0979 292.122 68.8769 291.315 69.4098Z" fill="#141414"/>
</svg>
