<svg width="12" height="14" viewBox="0 0 12 14" fill="none" xmlns="http://www.w3.org/2000/svg">
<path d="M7.69874 9.79883H3.49882C3.31317 9.79883 3.13512 9.87258 3.00385 10.0038C2.87258 10.1351 2.79883 10.3132 2.79883 10.4988C2.79883 10.6845 2.87258 10.8625 3.00385 10.9938C3.13512 11.1251 3.31317 11.1988 3.49882 11.1988H7.69874C7.88439 11.1988 8.06243 11.1251 8.1937 10.9938C8.32498 10.8625 8.39873 10.6845 8.39873 10.4988C8.39873 10.3132 8.32498 10.1351 8.1937 10.0038C8.06243 9.87258 7.88439 9.79883 7.69874 9.79883Z" fill="#282828"/>
<path d="M3.49882 8.39997H5.59878C5.78443 8.39997 5.96247 8.32623 6.09374 8.19495C6.22502 8.06368 6.29876 7.88564 6.29876 7.69999C6.29876 7.51434 6.22502 7.33629 6.09374 7.20502C5.96247 7.07375 5.78443 7 5.59878 7H3.49882C3.31317 7 3.13512 7.07375 3.00385 7.20502C2.87258 7.33629 2.79883 7.51434 2.79883 7.69999C2.79883 7.88564 2.87258 8.06368 3.00385 8.19495C3.13512 8.32623 3.31317 8.39997 3.49882 8.39997Z" fill="#282828"/>
<path d="M11.0178 4.43105L7.20987 0.231122C7.14442 0.158608 7.06453 0.100595 6.97532 0.0608117C6.88611 0.0210286 6.78956 0.000356857 6.69188 0.000125981H1.79197C1.5594 -0.00264813 1.32856 0.0404173 1.11263 0.126863C0.896704 0.213309 0.69992 0.341442 0.533518 0.503945C0.367115 0.666448 0.234352 0.860137 0.14281 1.07395C0.0512685 1.28777 0.00274141 1.51752 0 1.75009V12.2499C0.00274141 12.4825 0.0512685 12.7122 0.14281 12.926C0.234352 13.1399 0.367115 13.3336 0.533518 13.4961C0.69992 13.6586 0.896704 13.7867 1.11263 13.8731C1.32856 13.9596 1.5594 14.0026 1.79197 13.9999H9.40783C9.6404 14.0026 9.87124 13.9596 10.0872 13.8731C10.3031 13.7867 10.4999 13.6586 10.6663 13.4961C10.8327 13.3336 10.9654 13.1399 11.057 12.926C11.1485 12.7122 11.1971 12.4825 11.1998 12.2499V4.90004C11.1993 4.72656 11.1345 4.55942 11.0178 4.43105ZM6.99987 2.10009L8.91784 4.20005H7.51786C7.44456 4.19562 7.37287 4.17664 7.30699 4.14421C7.2411 4.11178 7.18233 4.06656 7.13411 4.01117C7.08589 3.95578 7.04919 3.89134 7.02614 3.82162C7.00309 3.75189 6.99416 3.67827 6.99987 3.60506V2.10009ZM9.40783 12.5999H1.79197C1.74323 12.6027 1.69441 12.5959 1.64831 12.5799C1.60221 12.5638 1.55974 12.5388 1.52332 12.5063C1.4869 12.4738 1.45726 12.4344 1.4361 12.3904C1.41493 12.3464 1.40266 12.2987 1.39997 12.2499V1.75009C1.40266 1.70135 1.41493 1.65361 1.4361 1.60962C1.45726 1.56563 1.4869 1.52624 1.52332 1.49373C1.55974 1.46121 1.60221 1.43621 1.64831 1.42014C1.69441 1.40407 1.74323 1.39726 1.79197 1.4001H5.5999V3.60506C5.5886 4.12069 5.78172 4.61985 6.13712 4.99361C6.49251 5.36736 6.98132 5.58536 7.49686 5.60003H9.79982V12.2499C9.79714 12.2987 9.78487 12.3464 9.7637 12.3904C9.74253 12.4344 9.71289 12.4738 9.67648 12.5063C9.64006 12.5388 9.59758 12.5638 9.55148 12.5799C9.50538 12.5959 9.45657 12.6027 9.40783 12.5999Z" fill="#282828"/>
</svg>
