<svg width="13" height="14" viewBox="0 0 13 14" fill="none" xmlns="http://www.w3.org/2000/svg">
<path d="M2.5459 3.18129C2.5459 3.01251 2.61294 2.85065 2.73229 2.73131C2.85163 2.61197 3.01349 2.54492 3.18226 2.54492H9.5459C9.71467 2.54492 9.87653 2.61197 9.99588 2.73131C10.1152 2.85065 10.1823 3.01251 10.1823 3.18129C10.1823 3.35006 10.1152 3.51192 9.99588 3.63126C9.87653 3.7506 9.71467 3.81765 9.5459 3.81765H3.18226C3.01349 3.81765 2.85163 3.7506 2.73229 3.63126C2.61294 3.51192 2.5459 3.35006 2.5459 3.18129ZM2.5459 5.72674C2.5459 5.55797 2.61294 5.3961 2.73229 5.27676C2.85163 5.15742 3.01349 5.09038 3.18226 5.09038H9.5459C9.71467 5.09038 9.87653 5.15742 9.99588 5.27676C10.1152 5.3961 10.1823 5.55797 10.1823 5.72674C10.1823 5.89551 10.1152 6.05738 9.99588 6.17672C9.87653 6.29606 9.71467 6.3631 9.5459 6.3631H3.18226C3.01349 6.3631 2.85163 6.29606 2.73229 6.17672C2.61294 6.05738 2.5459 5.89551 2.5459 5.72674ZM3.18226 7.63583C3.01349 7.63583 2.85163 7.70288 2.73229 7.82222C2.61294 7.94156 2.5459 8.10342 2.5459 8.27219C2.5459 8.44097 2.61294 8.60283 2.73229 8.72217C2.85163 8.84151 3.01349 8.90856 3.18226 8.90856H9.5459C9.71467 8.90856 9.87653 8.84151 9.99588 8.72217C10.1152 8.60283 10.1823 8.44097 10.1823 8.27219C10.1823 8.10342 10.1152 7.94156 9.99588 7.82222C9.87653 7.70288 9.71467 7.63583 9.5459 7.63583H3.18226ZM2.5459 10.8176C2.5459 10.6489 2.61294 10.487 2.73229 10.3677C2.85163 10.2483 3.01349 10.1813 3.18226 10.1813H5.72772C5.89649 10.1813 6.05835 10.2483 6.17769 10.3677C6.29703 10.487 6.36408 10.6489 6.36408 10.8176C6.36408 10.9864 6.29703 11.1483 6.17769 11.2676C6.05835 11.387 5.89649 11.454 5.72772 11.454H3.18226C3.01349 11.454 2.85163 11.387 2.73229 11.2676C2.61294 11.1483 2.5459 10.9864 2.5459 10.8176Z" fill="white"/>
<path fill-rule="evenodd" clip-rule="evenodd" d="M0 1.90909C0 1.40277 0.201136 0.917184 0.55916 0.55916C0.917184 0.201136 1.40277 0 1.90909 0H10.8182C11.3245 0 11.8101 0.201136 12.1681 0.55916C12.5261 0.917184 12.7273 1.40277 12.7273 1.90909V12.0909C12.7273 12.5972 12.5261 13.0828 12.1681 13.4408C11.8101 13.7989 11.3245 14 10.8182 14H1.90909C1.40277 14 0.917184 13.7989 0.55916 13.4408C0.201136 13.0828 0 12.5972 0 12.0909V1.90909ZM1.90909 1.27273H10.8182C10.987 1.27273 11.1488 1.33977 11.2682 1.45911C11.3875 1.57846 11.4545 1.74032 11.4545 1.90909V12.0909C11.4545 12.2597 11.3875 12.4215 11.2682 12.5409C11.1488 12.6602 10.987 12.7273 10.8182 12.7273H1.90909C1.74032 12.7273 1.57846 12.6602 1.45911 12.5409C1.33977 12.4215 1.27273 12.2597 1.27273 12.0909V1.90909C1.27273 1.74032 1.33977 1.57846 1.45911 1.45911C1.57846 1.33977 1.74032 1.27273 1.90909 1.27273Z" fill="white"/>
</svg>
