<svg width="20" height="20" viewBox="0 0 20 20" fill="none" xmlns="http://www.w3.org/2000/svg">
<path d="M19.9999 14.3396C19.9999 15.5894 18.9641 16.6039 17.6884 16.6039H2.31151C1.03502 16.6039 0 15.5908 0 14.3396C0 13.0904 1.03426 12.0756 2.30856 12.0756C2.30695 12.0756 2.30775 7.54714 2.30775 7.54714C2.30775 3.37795 5.75119 0 9.99997 0C14.2488 0 17.6922 3.37849 17.6922 7.54714V12.0748C18.9639 12.0756 20 13.09 20 14.3396L19.9999 14.3396ZM17.6914 13.585C16.8414 13.585 16.1538 12.9109 16.1538 12.0749V7.54721C16.1538 4.21245 13.3991 1.50963 9.99989 1.50963C6.60068 1.50963 3.84597 4.21164 3.84597 7.54721V12.0749C3.84597 12.9082 3.15676 13.585 2.30842 13.585C1.88373 13.585 1.53844 13.924 1.53844 14.3396C1.53844 14.7563 1.88372 15.0946 2.31138 15.0946H17.6883C18.1148 15.0946 18.4612 14.7553 18.4612 14.3396C18.4612 13.9243 18.1148 13.585 17.6912 13.585H17.6914ZM6.53832 16.6039H8.07663C8.07663 17.646 8.93754 18.4907 9.99968 18.4907C11.0618 18.4907 11.9227 17.646 11.9227 16.6039H13.461C13.461 18.4797 11.9115 20 9.99968 20C8.08789 20 6.53832 18.4797 6.53832 16.6039Z" fill="white"/>
</svg>
