<?xml version="1.0" encoding="utf-8"?>
<!-- Generator: Adobe Illustrator 27.2.0, SVG Export Plug-In . SVG Version: 6.00 Build 0)  -->
<svg version="1.1" id="Layer_1" xmlns="http://www.w3.org/2000/svg" xmlns:xlink="http://www.w3.org/1999/xlink" x="0px" y="0px"
	 viewBox="0 0 100 100" style="enable-background:new 0 0 100 100;" xml:space="preserve">
<path d="M35,45c1,0,2-0.3,2.8-0.8s1.5-1.3,1.8-2.2c0.4-1,0.5-2,0.3-3c-0.2-1-0.7-1.9-1.4-2.6c-0.7-0.7-1.6-1.2-2.6-1.4
	s-2-0.1-2.9,0.3c-0.9,0.4-1.7,1-2.2,1.8C30.3,38,30,39,30,40c0,1.3,0.5,2.6,1.5,3.5C32.4,44.5,33.7,45,35,45z M65,35
	c-1,0-2,0.3-2.8,0.8s-1.5,1.3-1.8,2.2c-0.4,1-0.5,2-0.3,3c0.2,1,0.7,1.9,1.4,2.6c0.7,0.7,1.6,1.2,2.6,1.4s2,0.1,2.9-0.3
	c0.9-0.4,1.7-1,2.2-1.8C69.7,42,70,41,70,40c0-1.3-0.5-2.6-1.5-3.5C67.6,35.5,66.3,35,65,35z M50,0c-9.9,0-19.6,2.9-27.8,8.4
	S7.6,21.7,3.8,30.9C0,40-1,50.1,1,59.8c1.9,9.7,6.7,18.6,13.7,25.6s15.9,11.8,25.6,13.7c9.7,1.9,19.8,0.9,28.9-2.8
	c9.1-3.8,16.9-10.2,22.4-18.4S100,60,100,50.1c0-6.6-1.3-13.1-3.8-19.1S90,19.3,85.4,14.6C80.7,10,75.2,6.3,69.1,3.8
	C63.1,1.3,56.6,0,50,0z M50,90c-7.9,0-15.6-2.3-22.2-6.7c-6.6-4.4-11.7-10.6-14.7-18C10,58,9.2,50,10.8,42.2
	c1.5-7.8,5.4-14.9,10.9-20.5s12.7-9.4,20.5-10.9C50,9.2,58,10,65.3,13s13.6,8.2,18,14.7C87.7,34.4,90,42.1,90,50
	c0,10.6-4.2,20.8-11.7,28.3S60.6,90,50,90z M64.9,70.3H35.1c-2.8,0-5.1-2.3-5.1-5.1v0c0-2.8,2.3-5.1,5.1-5.1h29.7
	c2.8,0,5.1,2.3,5.1,5.1v0C70,68,67.7,70.3,64.9,70.3z"/>
</svg>
