<?xml version="1.0" encoding="utf-8"?>
<!-- Generator: Adobe Illustrator 22.1.0, SVG Export Plug-In . SVG Version: 6.00 Build 0)  -->
<svg version="1.1" id="Layer_1" xmlns="http://www.w3.org/2000/svg" xmlns:xlink="http://www.w3.org/1999/xlink" x="0px" y="0px"
	 viewBox="0 0 300 300" style="enable-background:new 0 0 300 300;" xml:space="preserve">
<path d="M268.8,30.1c-11.5-11.6-26.8-18-43.1-18c-16.3,0-31.6,6.4-43.1,18c-21.8,22-23.6,56.7-5.3,80.8c-0.2,0.1-0.4,0.2-0.5,0.3
	L15.8,273.6c-3.2,3.3-3.2,8.6,0,11.8c1.6,1.6,3.7,2.4,5.8,2.4s4.2-0.8,5.8-2.4l30.7-31l19,19.2c1.6,1.6,3.7,2.4,5.9,2.4
	c2.1,0,4.2-0.8,5.8-2.4c3.2-3.3,3.2-8.6,0-11.8l-19-19.2l10.2-10.3l37.3,37.6c1.6,1.6,3.7,2.4,5.9,2.4c2.1,0,4.2-0.8,5.8-2.4
	c3.2-3.3,3.2-8.5,0-11.8l-37.3-37.6l96.5-97.4c0.1-0.2,0.2-0.4,0.3-0.5c10.6,8.2,23.4,12.6,37,12.6c16.3,0,31.6-6.4,43.1-18
	c11.5-11.6,17.9-27.1,17.9-43.5C286.6,57.2,280.3,41.8,268.8,30.1z M257.1,105.4c-8.4,8.5-19.6,13.1-31.4,13.1
	c-11.9,0-23-4.7-31.4-13.1c-17.3-17.5-17.3-46,0-63.5c8.4-8.5,19.6-13.1,31.4-13.1c11.9,0,23,4.7,31.4,13.1c8.4,8.5,13,19.7,13,31.7
	S265.5,96.9,257.1,105.4z"/>
</svg>
