<svg width="20" height="20" viewBox="0 0 20 20" fill="none" xmlns="http://www.w3.org/2000/svg">
<path d="M10 0C4.48648 0 0 4.48648 0 10C0 15.5135 4.48648 20 10 20C15.5135 20 20 15.5135 20 10C20 4.48648 15.5135 0 10 0ZM10 18.6667C5.21981 18.6667 1.33333 14.7802 1.33333 10C1.33333 5.21981 5.21981 1.33333 10 1.33333C14.7802 1.33333 18.6667 5.21981 18.6667 10C18.6667 14.7802 14.7802 18.6667 10 18.6667ZM15 10C15 10.3667 14.7 10.6667 14.3333 10.6667H10.6667V14.3333C10.6667 14.7 10.3667 15 10 15C9.63333 15 9.33333 14.7 9.33333 14.3333V10.6667H5.66667C5.3 10.6667 5 10.3667 5 10C5 9.63333 5.3 9.33333 5.66667 9.33333H9.33333V5.66667C9.33333 5.3 9.63333 5 10 5C10.3667 5 10.6667 5.3 10.6667 5.66667V9.33333H14.3333C14.7 9.33333 15 9.63333 15 10Z" fill="white"/>
</svg>
