<svg width="253" height="253" viewBox="0 0 253 253" fill="none" xmlns="http://www.w3.org/2000/svg">
<path fill-rule="evenodd" clip-rule="evenodd" d="M69.0051 136.523C72.3227 154.726 84.1324 171.158 101.94 179.349L101.906 179.361C105.466 180.999 109.108 182.247 112.782 183.123L112.78 183.131C115.667 183.818 118.562 184.272 121.445 184.504C145.207 186.463 168.767 173.628 179.292 150.746C180.688 147.71 181.801 144.614 182.642 141.489L182.647 141.499C186.354 127.665 184.746 113.639 179.08 101.598C173.435 89.5479 163.671 79.3514 150.66 73.3666C142.976 69.8326 134.437 67.9759 125.959 68.0204L125.959 68.0478C103.015 68.1891 81.8154 81.9814 72.6502 103.482L72.6418 103.478C71.607 105.905 70.7531 108.37 70.0742 110.857C70.0332 111.005 69.9928 111.154 69.9528 111.303C67.764 119.471 67.3728 128.202 68.8452 136.551L69.0051 136.523ZM84.4804 108.527L84.5047 108.538C74.9577 130.96 85.1899 157.457 107.326 167.639C122.654 174.69 140.642 172.201 153.733 162.445C161.528 156.546 167.494 148.154 170.179 138.132C176.485 114.597 162.249 88.9471 138.047 82.4621C134.661 81.5549 131.26 81.0569 127.897 80.9376C127.28 80.9165 126.662 80.9084 126.045 80.9134L126.045 80.91C108.158 81.0112 91.6213 91.7656 84.4804 108.527Z" fill="#EAEAEA"/>
<path d="M101.939 179.351C73.5258 166.281 60.3822 132.231 72.6414 103.48L84.5043 108.54C74.9573 130.962 85.1895 157.459 107.325 167.641C129.461 177.823 157.143 168.112 167.613 145.348C178.084 122.585 168.076 95.5382 145.307 85.0655C139.311 82.3073 132.653 80.8624 126.045 80.9154L125.959 68.0224C134.436 67.9779 142.976 69.8346 150.659 73.3686C179.893 86.815 192.735 121.521 179.291 150.748C165.848 179.975 131.139 192.81 101.905 179.363L101.939 179.351Z" fill="#E10000"/>
<path d="M98.2972 126.216C97.0278 125.717 96.0532 124.992 95.3732 124.04C94.6932 123.088 94.3532 121.932 94.3532 120.572C94.3532 119.348 94.6592 118.249 95.2712 117.274C95.8832 116.277 96.7898 115.495 97.9912 114.928C99.2152 114.339 100.689 114.044 102.411 114.044C104.134 114.044 105.596 114.339 106.797 114.928C108.021 115.495 108.939 116.277 109.551 117.274C110.186 118.249 110.503 119.348 110.503 120.572C110.503 121.887 110.152 123.043 109.449 124.04C108.747 125.015 107.783 125.74 106.559 126.216C107.965 126.647 109.075 127.406 109.891 128.494C110.73 129.559 111.149 130.851 111.149 132.37C111.149 133.843 110.787 135.135 110.061 136.246C109.336 137.334 108.305 138.184 106.967 138.796C105.653 139.385 104.134 139.68 102.411 139.68C100.689 139.68 99.1698 139.385 97.8552 138.796C96.5632 138.184 95.5545 137.334 94.8292 136.246C94.1038 135.135 93.7412 133.843 93.7412 132.37C93.7412 130.851 94.1492 129.548 94.9652 128.46C95.7812 127.372 96.8918 126.624 98.2972 126.216ZM107.511 120.946C107.511 119.563 107.058 118.498 106.151 117.75C105.245 117.002 103.998 116.628 102.411 116.628C100.847 116.628 99.6118 117.002 98.7052 117.75C97.7985 118.498 97.3452 119.575 97.3452 120.98C97.3452 122.249 97.8098 123.269 98.7392 124.04C99.6912 124.811 100.915 125.196 102.411 125.196C103.93 125.196 105.154 124.811 106.083 124.04C107.035 123.247 107.511 122.215 107.511 120.946ZM102.411 127.576C100.734 127.576 99.3625 127.973 98.2972 128.766C97.2318 129.537 96.6992 130.704 96.6992 132.268C96.6992 133.719 97.2092 134.886 98.2292 135.77C99.2718 136.654 100.666 137.096 102.411 137.096C104.157 137.096 105.539 136.654 106.559 135.77C107.579 134.886 108.089 133.719 108.089 132.268C108.089 130.749 107.568 129.593 106.525 128.8C105.483 127.984 104.111 127.576 102.411 127.576ZM130.932 117.104H118.998V124.856C119.52 124.131 120.29 123.541 121.31 123.088C122.33 122.612 123.43 122.374 124.608 122.374C126.49 122.374 128.02 122.771 129.198 123.564C130.377 124.335 131.216 125.343 131.714 126.59C132.236 127.814 132.496 129.117 132.496 130.5C132.496 132.132 132.19 133.594 131.578 134.886C130.966 136.178 130.026 137.198 128.756 137.946C127.51 138.694 125.957 139.068 124.098 139.068C121.718 139.068 119.792 138.456 118.318 137.232C116.845 136.008 115.95 134.376 115.632 132.336H118.658C118.953 133.628 119.576 134.637 120.528 135.362C121.48 136.087 122.682 136.45 124.132 136.45C125.923 136.45 127.272 135.917 128.178 134.852C129.085 133.764 129.538 132.336 129.538 130.568C129.538 128.8 129.085 127.44 128.178 126.488C127.272 125.513 125.934 125.026 124.166 125.026C122.965 125.026 121.911 125.321 121.004 125.91C120.12 126.477 119.474 127.259 119.066 128.256H116.142V114.384H130.932V117.104ZM135.928 119.96C135.928 118.419 136.393 117.195 137.322 116.288C138.251 115.359 139.441 114.894 140.892 114.894C142.343 114.894 143.533 115.359 144.462 116.288C145.391 117.195 145.856 118.419 145.856 119.96C145.856 121.524 145.391 122.771 144.462 123.7C143.533 124.607 142.343 125.06 140.892 125.06C139.441 125.06 138.251 124.607 137.322 123.7C136.393 122.771 135.928 121.524 135.928 119.96ZM155.784 115.268L142.014 139H138.954L152.724 115.268H155.784ZM140.892 116.798C140.121 116.798 139.509 117.07 139.056 117.614C138.625 118.135 138.41 118.917 138.41 119.96C138.41 121.003 138.625 121.796 139.056 122.34C139.509 122.884 140.121 123.156 140.892 123.156C141.663 123.156 142.275 122.884 142.728 122.34C143.181 121.773 143.408 120.98 143.408 119.96C143.408 118.917 143.181 118.135 142.728 117.614C142.275 117.07 141.663 116.798 140.892 116.798ZM148.95 134.308C148.95 132.744 149.415 131.509 150.344 130.602C151.273 129.673 152.463 129.208 153.914 129.208C155.365 129.208 156.543 129.673 157.45 130.602C158.379 131.509 158.844 132.744 158.844 134.308C158.844 135.849 158.379 137.085 157.45 138.014C156.543 138.943 155.365 139.408 153.914 139.408C152.463 139.408 151.273 138.955 150.344 138.048C149.415 137.119 148.95 135.872 148.95 134.308ZM153.88 131.146C153.109 131.146 152.497 131.418 152.044 131.962C151.591 132.483 151.364 133.265 151.364 134.308C151.364 135.328 151.591 136.11 152.044 136.654C152.497 137.175 153.109 137.436 153.88 137.436C154.651 137.436 155.263 137.175 155.716 136.654C156.169 136.11 156.396 135.328 156.396 134.308C156.396 133.265 156.169 132.483 155.716 131.962C155.263 131.418 154.651 131.146 153.88 131.146Z" fill="#E10000"/>
</svg>
