<svg width="24" height="24" viewBox="0 0 24 24" fill="none" xmlns="http://www.w3.org/2000/svg">
<path d="M5.18896 12.4105C4.75346 11.979 4.16473 11.7375 3.55157 11.7394C2.93842 11.741 2.35092 11.9856 1.91783 12.4193L0.672162 13.656V13.6562C0.240864 14.0929 -0.000807081 14.6822 1.23012e-05 15.2961C-0.00198812 15.9076 0.240065 16.4946 0.672162 16.9273L5.17119 21.4263L5.17099 21.4261C5.60489 21.8632 6.19542 22.1085 6.81113 22.1073C7.42449 22.1101 8.01281 21.8644 8.44212 21.4261L9.68778 20.1805H9.68798C10.1261 19.7512 10.3718 19.1628 10.3689 18.5495C10.3701 17.9338 10.1249 17.3432 9.68798 16.9093L5.18896 12.4105ZM9.00682 19.4997L7.76115 20.7454C7.50589 20.991 7.16541 21.1285 6.81113 21.1285C6.45685 21.1285 6.11639 20.991 5.86111 20.7454L1.36208 16.2464C1.10642 15.9969 0.963796 15.6536 0.967795 15.2963C0.966995 14.9384 1.10883 14.595 1.36208 14.3419L2.59874 13.1052H2.59894C2.85239 12.8526 3.19545 12.711 3.55336 12.711C3.91128 12.711 4.25434 12.8526 4.50779 13.1052L9.00681 17.6043V17.6041C9.25847 17.8561 9.3999 18.1978 9.3999 18.5541C9.3999 18.9104 9.25847 19.2521 9.00681 19.5041L9.00682 19.4997Z" fill="white"/>
<path d="M16.9105 9.68618C17.3478 10.1169 17.937 10.3583 18.5507 10.3583C19.1644 10.3583 19.7533 10.1169 20.1906 9.68618L21.4273 8.44051H21.4275C21.8656 8.01122 22.1113 7.42289 22.1084 6.80953C22.1096 6.19381 21.8644 5.60324 21.4275 5.16938L16.9285 0.670562C16.4926 0.240868 15.9051 0 15.2929 0C14.6807 0 14.0932 0.240852 13.6573 0.670562L12.4206 1.91623C11.9845 2.34872 11.7393 2.93764 11.7393 3.55182C11.7393 4.16595 11.9845 4.75467 12.4206 5.18741L16.9105 9.68618ZM13.1017 2.60159L14.3383 1.36494H14.3385C14.592 1.10948 14.9377 0.96725 15.2974 0.970451C15.6545 0.96745 15.9975 1.10988 16.2474 1.36494L20.7464 5.85495V5.85475C20.9963 6.10961 21.1363 6.45228 21.1363 6.80938C21.1363 7.16626 20.9963 7.50893 20.7464 7.76381L19.5008 9.00947C19.2475 9.25933 18.9062 9.39936 18.5507 9.39936C18.1951 9.39936 17.8538 9.25933 17.6007 9.00947L13.1017 4.51045C12.8492 4.25699 12.7074 3.91394 12.7074 3.55602C12.7074 3.19834 12.8492 2.85504 13.1017 2.6016L13.1017 2.60159Z" fill="white"/>
<path d="M8.1582 13.2637L13.2619 8.15338L13.9455 8.83613L8.84177 13.9465L8.1582 13.2637Z" fill="white"/>
<path d="M18.9364 13.1899C17.5947 13.1911 16.3084 13.7252 15.3604 14.6748C14.4125 15.6244 13.8806 16.9117 13.8818 18.2534C13.8831 19.5951 14.4172 20.8816 15.3668 21.8294C16.3164 22.7774 17.6037 23.3092 18.9454 23.3079C20.2871 23.3067 21.5733 22.7726 22.5214 21.823C23.4692 20.8734 24.0011 19.5863 23.9999 18.2444C23.9995 16.9025 23.4655 15.6158 22.5158 14.6678C21.566 13.7196 20.2785 13.188 18.9364 13.1899ZM20.6033 20.6017L18.4525 18.4508V15.4576H19.4202V18.0475L21.2933 19.9205L20.6033 20.6017Z" fill="white"/>
</svg>
