<svg width="147" height="40" viewBox="0 0 147 40" fill="none" xmlns="http://www.w3.org/2000/svg">
<path fill-rule="evenodd" clip-rule="evenodd" d="M19.528 0.475321C19.0161 0.475321 18.102 0.548447 16.8954 0.658136C16.6395 0.6947 16.2739 0.731261 16.0545 0.731261C15.8351 0.767825 15.6157 0.767821 15.5792 0.767821C15.5426 0.767821 15.0673 0.804385 14.5188 0.877512C13.9704 0.950638 13.4219 1.06033 13.2391 1.06033C13.0563 1.09689 12.8004 1.13345 12.581 1.17002C12.3982 1.20658 12.1057 1.27971 11.9594 1.27971C11.5572 1.31627 10.7894 1.53565 10.7894 1.57221C10.7894 1.60878 10.7163 1.60878 10.6797 1.57221C10.6066 1.57221 10.4969 1.57221 10.4603 1.57221C10.3872 1.60878 10.3141 1.60878 10.2775 1.64534C10.1313 1.6819 9.47313 1.86472 8.96125 2.01097C8.70531 2.0841 8.44937 2.15722 8.4128 2.15722C8.33968 2.15722 8.26655 2.19379 7.97405 2.30347C7.71811 2.41316 7.60842 2.44972 7.57186 2.44972C7.53529 2.44972 7.4256 2.48629 7.27935 2.55942C7.1331 2.63254 6.98684 2.66911 6.95028 2.66911C6.91372 2.66911 6.84059 2.70567 6.84059 2.74223C6.84059 2.77879 6.80403 2.81536 6.7309 2.81536C6.69434 2.81536 6.54809 2.85192 6.47496 2.92505C6.36527 2.99817 6.29215 3.03473 6.25558 2.99817C6.1459 2.88848 6.25558 15.9049 6.36527 16.5631C6.4384 16.9287 6.47496 17.2943 6.47496 17.4406C6.51153 17.7331 6.7309 18.6837 6.87716 19.159C6.95028 19.3784 7.02341 19.5612 7.02341 19.5612C7.02341 19.5978 7.02341 19.5978 7.05997 19.6344C7.05997 19.6344 7.09653 19.7075 7.09653 19.7441C7.09653 19.7806 7.16966 19.9269 7.20622 20.0731C7.24279 20.1828 7.31591 20.3291 7.31591 20.3656C7.31591 20.4022 7.35248 20.4388 7.38904 20.4753C7.4256 20.5119 7.4256 20.5484 7.4256 20.5484C7.38904 20.5484 7.4256 20.6581 7.49873 20.7678C7.57185 20.8775 7.60842 21.0238 7.60842 21.0603C7.60842 21.0969 7.64498 21.17 7.64498 21.17C7.68154 21.17 7.8278 21.426 7.97405 21.7185C8.1203 22.011 8.26655 22.2669 8.33968 22.3035C8.37624 22.34 8.4128 22.3766 8.37624 22.4132C8.33968 22.4497 8.37624 22.4863 8.4128 22.4863C8.44937 22.4863 8.48593 22.5229 8.48593 22.596C8.48593 22.6691 8.55906 22.7788 8.63218 22.8885C8.70531 22.9982 8.77843 23.1079 8.77843 23.1444C8.77843 23.181 8.96125 23.4369 9.21719 23.7294C9.25376 23.8026 9.32688 23.8757 9.36345 23.9488C9.40001 24.0219 9.47314 24.1316 9.54626 24.2048C9.61939 24.2779 9.65595 24.351 9.65595 24.3876C9.65595 24.4241 9.69251 24.4607 9.72908 24.4607C9.76564 24.4607 9.8022 24.4973 9.8022 24.4973C9.8022 24.5704 10.1678 25.0091 10.57 25.4479C10.7163 25.5941 10.8991 25.8135 11.0088 25.9232C11.1185 26.0329 11.1916 26.1426 11.1916 26.106C11.1916 26.0695 11.3744 26.2523 11.5938 26.4717C12.1057 26.9835 12.9101 27.7148 13.0929 27.8245C13.166 27.8611 13.2757 27.9708 13.3123 28.0439C13.3488 28.117 13.4219 28.1901 13.4585 28.1901C13.5316 28.1901 13.6413 28.2633 14.1166 28.7386C14.2263 28.8483 14.336 28.9214 14.3726 28.9214C14.4092 28.9214 14.4823 28.9945 14.5554 29.1042C14.6285 29.2139 14.7017 29.287 14.7382 29.287C14.7748 29.287 15.1038 29.543 15.7254 30.128C15.8717 30.2742 16.0179 30.3839 16.0545 30.3839C16.0545 30.3839 16.1642 30.457 16.2373 30.5302C16.3104 30.6399 16.4201 30.713 16.4201 30.713C16.4567 30.713 16.5298 30.7861 16.6395 30.8958C16.9686 31.2249 17.2245 31.4442 17.2611 31.4442C17.2976 31.4442 17.3708 31.5174 17.4804 31.6271C17.5901 31.7367 17.6998 31.8099 17.7364 31.7733C17.773 31.7367 17.773 31.7367 17.773 31.7733C17.7364 31.8099 17.9558 32.1024 18.0289 32.1024C18.102 32.1024 18.3945 32.4314 18.3945 32.468C18.3945 32.5777 18.2483 32.5046 18.0655 32.3218C17.9558 32.2121 17.8461 32.1389 17.8095 32.1389C17.773 32.1389 17.6998 32.1024 17.6998 32.0293C17.6633 31.9927 17.6267 31.9561 17.5901 31.9561C17.5536 31.9561 17.4439 31.9196 17.4073 31.8464C17.3708 31.7733 17.1879 31.6636 17.0783 31.5905C16.9686 31.5174 16.8223 31.4077 16.7857 31.3346C16.7126 31.2614 16.7126 31.2614 16.7492 31.3346C16.7858 31.3711 16.7126 31.3346 16.5664 31.2614C16.0911 30.8592 15.8717 30.713 15.762 30.6399C15.6889 30.6033 15.6157 30.5302 15.6157 30.4936C15.6157 30.457 15.5792 30.457 15.5792 30.457C15.5426 30.4936 15.4695 30.4205 15.3964 30.3474C15.3232 30.2742 15.1038 30.0914 14.921 29.9817C14.7382 29.8355 14.5554 29.7258 14.5188 29.6892C14.4823 29.6527 14.336 29.543 14.1898 29.4333C14.0435 29.3236 13.8607 29.1773 13.7876 29.1042C13.7145 29.0311 13.6413 28.9945 13.6048 28.9945C13.5682 28.9945 13.4951 28.9214 13.3854 28.8117C13.2757 28.702 13.2391 28.702 13.2391 28.7386C13.2757 28.7751 13.2391 28.7751 13.166 28.702C12.9832 28.5192 12.5444 28.1536 12.5444 28.2267C12.5444 28.2633 12.4347 28.1901 12.3251 28.0439C12.2154 27.9342 12.1057 27.8245 12.1057 27.8611C12.1057 27.8611 11.996 27.7879 11.9229 27.7148C11.8497 27.6417 11.74 27.532 11.7035 27.532C11.6669 27.532 11.5207 27.4223 11.155 27.0932C11.0819 27.0201 11.0453 27.0201 11.0088 27.0201C11.0088 27.0201 10.826 26.9104 10.6432 26.7276C10.4603 26.5448 10.2775 26.3985 10.2775 26.4351C10.2775 26.4351 10.2044 26.3985 10.1313 26.3254C9.87533 26.0695 9.61939 25.8501 9.54626 25.8501C9.5097 25.8501 9.36345 25.7038 9.07094 25.4113C8.99782 25.3016 8.88813 25.2285 8.85156 25.2285C8.815 25.2285 8.74187 25.192 8.70531 25.1188C8.66875 25.0457 8.59562 25.0091 8.55906 25.0091C8.52249 25.0091 8.41281 24.936 8.33968 24.8629C8.26655 24.7898 8.08374 24.6069 7.90092 24.4607C7.46217 24.0585 6.65778 23.2907 6.69434 23.2907C6.69434 23.2907 6.62121 23.2176 6.51153 23.1079C6.40184 22.9982 6.29215 22.925 6.29215 22.925C6.29215 22.925 6.18246 22.8154 6.07277 22.6325C5.99964 22.4863 5.88995 22.34 5.85339 22.34C5.81683 22.34 5.78026 22.2669 5.78026 22.2304C5.78026 22.1572 5.70714 22.1207 5.67057 22.1572C5.63401 22.1938 5.59745 22.1207 5.56089 22.0475C5.52432 21.9744 5.48776 21.8647 5.4512 21.8282C5.41463 21.7916 5.26838 21.6088 5.15869 21.426C5.049 21.2431 4.93931 21.0969 4.90275 21.0603C4.82962 20.9872 4.61025 20.6216 4.42743 20.2925C4.31774 20.0731 4.20805 19.9269 4.20805 19.8903C4.17149 19.8903 4.17149 19.8537 4.20805 19.8172C4.24461 19.7806 4.20805 19.7441 4.17149 19.7441C4.13492 19.7441 4.09836 19.7075 4.09836 19.6344C4.09836 19.5612 4.02524 19.3784 3.95211 19.1956C3.87898 19.0128 3.76929 18.7934 3.76929 18.7569C3.76929 18.6837 3.69617 18.4644 3.62304 18.2084C3.54992 17.989 3.47679 17.6965 3.47679 17.5503C3.40366 17.0018 3.3671 16.7459 3.33054 16.5996C3.22085 16.0878 3.18429 14.8446 3.18429 12.724V10.3474L3.3671 10.2377C3.47679 10.1645 3.54992 10.128 3.54992 10.128C3.54992 10.128 3.58648 10.128 3.62304 10.0914C3.6596 10.0183 4.17149 9.76234 4.86619 9.43327L5.08556 9.32358V7.56856C5.08556 6.4351 5.049 5.81353 5.01244 5.81353C4.97588 5.81353 4.93931 5.85009 4.93931 5.88665C4.93931 5.92321 4.93931 5.92322 4.90275 5.92322C4.86619 5.88665 4.7565 5.92322 4.64681 5.99634C4.50056 6.06947 4.3543 6.10603 4.31774 6.10603C4.28118 6.10603 4.20805 6.14259 4.20805 6.17916C4.20805 6.21572 4.17149 6.21572 4.13492 6.21572C4.09836 6.17916 4.0618 6.21572 4.0618 6.25228C4.0618 6.28885 4.0618 6.32541 4.02523 6.28885C3.98867 6.25228 3.84242 6.32541 3.6596 6.4351C3.47679 6.54479 3.33054 6.61792 3.33054 6.58135C3.33054 6.54479 3.25741 6.61792 3.14772 6.65448C3.03803 6.7276 2.96491 6.76417 2.96491 6.76417C2.96491 6.72761 2.45302 6.98355 2.41646 7.05667C2.3799 7.09324 2.3799 7.09324 2.3799 7.05667C2.3799 7.02011 2.30677 7.05667 2.19708 7.1298C2.08739 7.20293 1.94114 7.27605 1.86801 7.31261C1.75832 7.34918 1.6852 7.42231 1.6852 7.42231C1.6852 7.45887 1.46582 7.56856 1.35613 7.56856C1.31957 7.56856 1.31957 7.60512 1.31957 7.60512C1.31957 7.60512 1.283 7.67825 1.24644 7.67825C1.20988 7.67825 1.13675 7.71481 1.13675 7.71481C1.13675 7.75137 0.990501 7.8245 0.807685 7.93419C0.62487 8.04388 0.478616 8.15356 0.51518 8.19013C0.551743 8.22669 0.51518 8.22669 0.478617 8.19013C0.442054 8.15356 0.332365 8.22669 0.259239 8.29982C0.186113 8.37294 0.0764228 8.44607 0.0398597 8.44607C-0.0332665 8.44607 0.00329746 14.7349 0.0764236 15.5027C0.112987 15.8318 0.186112 16.234 0.222675 16.4534C0.259238 16.6728 0.295802 16.9287 0.295802 17.1115C0.295802 17.2578 0.405491 17.6234 0.478617 17.9159C0.551743 18.2084 0.624869 18.5009 0.661432 18.5375C0.771122 19.0128 1.10019 19.7806 1.20988 19.8538C1.24644 19.8903 1.24644 19.8903 1.20988 19.8903C1.17332 19.8903 1.20988 20 1.31957 20.1463C1.39269 20.2925 1.46582 20.4388 1.46582 20.4753C1.46582 20.5119 1.50238 20.585 1.57551 20.6581C1.61207 20.7313 1.72176 20.841 1.75832 20.9506C1.86801 21.2066 2.05083 21.4991 2.12396 21.4991C2.16052 21.4991 2.16052 21.5357 2.16052 21.5722C2.16052 21.6088 2.19708 21.6819 2.23364 21.6819C2.27021 21.7185 2.30677 21.755 2.30677 21.7916C2.30677 21.8282 2.34333 21.9013 2.34333 21.9013C2.3799 21.9013 2.52615 22.0841 2.6724 22.3035C2.81865 22.5229 3.00147 22.6691 3.00147 22.6691C3.00147 22.6691 3.07459 22.7422 3.11116 22.8154C3.14772 22.8885 3.22085 22.9616 3.25741 22.9616C3.29397 22.9616 3.3671 22.9982 3.3671 23.0347C3.3671 23.1444 4.09836 23.9122 4.17149 23.9122C4.20805 23.9122 4.28118 23.9854 4.3543 24.0951C4.42743 24.2048 4.50056 24.2779 4.53712 24.2779C4.57368 24.2779 4.68337 24.3876 4.82962 24.4973C4.93931 24.6069 5.08556 24.7166 5.08556 24.7166C5.08556 24.7166 5.23182 24.7898 5.34151 24.8995C5.85339 25.3382 6.03621 25.521 6.10933 25.521C6.1459 25.521 6.18246 25.5576 6.18246 25.5942C6.18246 25.6307 6.29215 25.7038 6.40183 25.7404C6.51152 25.8135 6.62122 25.8867 6.62122 25.9232C6.62122 25.9598 6.65778 25.9963 6.65778 25.9598C6.69434 25.9232 6.80403 25.9963 6.91372 26.106C7.02341 26.2157 7.1331 26.2889 7.1331 26.2523C7.1331 26.2157 7.16966 26.2523 7.24279 26.3254C7.31591 26.3985 7.4256 26.4717 7.49873 26.5082C7.57185 26.5448 7.68154 26.6545 7.75467 26.691C7.8278 26.7276 7.90092 26.8007 7.90092 26.8007C7.93749 26.8007 8.01061 26.8373 8.08374 26.9104C8.26655 27.0932 8.66875 27.3857 8.74187 27.3857C8.77844 27.3857 8.85156 27.4589 8.92469 27.4954C9.25376 27.7879 9.5097 27.9342 9.54626 27.8976C9.58282 27.8611 9.58282 27.8976 9.58282 27.9342C9.58282 28.0073 9.8022 28.1536 10.4969 28.6289C10.6432 28.702 10.826 28.8483 10.8991 28.9214C11.2282 29.1773 12.0325 29.7258 12.0325 29.6892C12.0325 29.6527 12.1057 29.7258 12.2154 29.8355C12.3251 29.9452 12.4347 30.0183 12.4347 29.9817C12.4713 29.9817 12.581 30.0183 12.6907 30.128C12.8004 30.2377 12.9101 30.3108 12.9101 30.3108C12.9466 30.3108 13.0563 30.3839 13.166 30.4936C13.2757 30.6033 13.4219 30.6764 13.4585 30.6764C13.4951 30.6764 13.5316 30.713 13.5682 30.7861C13.6048 30.8227 13.6413 30.8592 13.6413 30.8592C13.6779 30.8592 13.751 30.8958 13.8607 30.9689C13.9338 31.042 14.007 31.1152 14.007 31.0786C14.007 31.042 14.0801 31.1152 14.1898 31.1883C14.2995 31.2614 14.3726 31.3346 14.4092 31.3346C14.4457 31.3346 14.6651 31.4808 14.8845 31.6636C15.1404 31.8464 15.3964 32.0293 15.506 32.0658C15.6157 32.1024 15.6889 32.1755 15.6889 32.1755C15.6889 32.1755 15.762 32.2486 15.8717 32.2852C15.9814 32.3218 16.0545 32.3949 16.0545 32.4314C16.0545 32.468 16.0911 32.468 16.1276 32.468C16.2007 32.468 16.347 32.5777 16.5298 32.7605C16.5664 32.7971 16.6395 32.8336 16.6395 32.8336C16.6761 32.8336 16.7858 32.9068 16.8954 32.9799C17.0051 33.053 17.1148 33.1261 17.1514 33.1261C17.1879 33.1261 17.2611 33.1993 17.3342 33.2724C17.4073 33.3455 17.517 33.4186 17.517 33.4186C17.5536 33.4186 17.6633 33.4918 17.7364 33.5649C17.8461 33.638 17.9192 33.7112 17.9558 33.7112C17.9923 33.7112 17.9923 33.7477 17.9558 33.8208C17.9192 33.894 17.8461 33.9305 17.8095 33.9305C17.773 33.9305 17.6267 34.0402 17.4804 34.1499C17.3342 34.2962 17.2245 34.3693 17.2245 34.3327C17.2245 34.2962 17.1879 34.3693 17.1148 34.4424C17.0783 34.5155 16.9686 34.5887 16.932 34.5887C16.8954 34.5887 16.8589 34.6252 16.8589 34.6252C16.8589 34.6618 16.6029 34.8812 16.2739 35.1371C15.9448 35.3931 15.6889 35.6124 15.6889 35.649C15.6889 35.6856 15.6523 35.6856 15.6157 35.6856C15.5792 35.6856 15.4329 35.7952 15.3232 35.9415C15.177 36.0878 15.0673 36.1974 15.0307 36.1974C14.9942 36.1974 14.9576 36.234 14.8845 36.3071C14.8113 36.3803 14.7017 36.4534 14.6285 36.5265C14.336 36.7459 14.007 37.075 14.007 37.1481C14.007 37.1846 13.9704 37.2212 13.9704 37.1846C13.9338 37.1846 13.8607 37.2212 13.7876 37.2943C13.7145 37.3675 13.6779 37.4406 13.7145 37.4406C13.751 37.4406 13.7145 37.4771 13.6779 37.5137C13.6048 37.5503 13.5682 37.6234 13.5682 37.66C13.5682 37.6965 13.5316 37.7331 13.4951 37.6965C13.4585 37.66 13.4585 37.6965 13.4585 37.7697C13.4951 37.8428 13.4585 37.8428 13.4219 37.8428C13.3854 37.8062 13.3488 37.8062 13.3488 37.8428C13.3488 37.8793 13.3123 37.989 13.2757 38.1353C13.2391 38.2815 13.2026 38.7569 13.2026 39.1956V40H20.2958H27.5353L27.4987 39.0494C27.4987 38.5375 27.4622 38.0622 27.4256 37.989C27.389 37.9525 27.3525 37.8793 27.3525 37.8428C27.3525 37.7697 27.06 37.3675 26.7675 37.1115C26.2921 36.6728 26.2556 36.5996 26.1825 36.5996C26.1459 36.5996 26.0728 36.5265 26.0362 36.4899C25.9996 36.4168 25.9265 36.3803 25.9265 36.3803C25.9265 36.3803 25.8168 36.3437 25.7437 36.2706C25.3781 35.9049 25.0124 35.6124 24.8662 35.5027C24.7565 35.4296 24.6468 35.3565 24.6102 35.2834C24.5737 35.2102 24.464 35.1737 24.4274 35.1737C24.3909 35.1737 24.3543 35.1371 24.3177 35.1006C24.2812 35.064 24.2446 35.0274 24.2446 35.0274C24.2081 35.0274 24.0984 34.9177 23.9521 34.7715C23.7327 34.5521 23.4037 34.4424 23.4037 34.6252C23.4037 34.6618 23.4037 34.6618 23.3671 34.6252C23.3305 34.5887 23.294 34.6252 23.2209 34.6618C23.1477 34.6984 22.8552 34.8812 22.4896 34.9909C22.1605 35.1371 21.8315 35.2834 21.8315 35.3199C21.8315 35.3565 21.7583 35.3565 21.6852 35.3565C21.6121 35.3565 21.5755 35.3931 21.5755 35.4296C21.5755 35.4662 21.5755 35.4662 21.5389 35.4662C21.5024 35.4296 21.4293 35.4662 21.3561 35.5027C21.283 35.5393 20.9539 35.7221 20.5883 35.8684C19.6011 36.3071 19.4183 36.3803 18.943 36.6362C18.687 36.7459 18.4677 36.8556 18.4677 36.8556C18.4677 36.8556 18.2117 36.9653 17.8826 37.1115C17.5901 37.2578 17.3342 37.3675 17.2976 37.3675C17.2611 37.3675 17.2245 37.404 17.2245 37.404C17.2245 37.4406 17.1879 37.4406 17.1514 37.4406C17.0051 37.4406 17.0417 37.3675 17.1879 37.2943C17.2611 37.2578 17.4073 37.1846 17.4804 37.1115C17.5536 37.0384 17.6633 36.9653 17.6998 36.9653C17.7364 36.9653 17.8095 36.8921 17.9192 36.819C18.0289 36.7459 18.102 36.6728 18.1386 36.6728C18.1386 36.6728 18.2117 36.6362 18.2848 36.5996C18.358 36.5265 18.4311 36.4899 18.4677 36.4899C18.5042 36.4899 18.5408 36.4534 18.5408 36.4534C18.5408 36.4168 18.6139 36.3803 18.687 36.3437C18.7602 36.3071 18.8333 36.234 18.7967 36.1974C18.7602 36.1609 18.7967 36.1609 18.8698 36.1609C18.9064 36.1974 18.9795 36.1609 18.9795 36.1243C18.9795 36.0878 19.0161 36.0512 19.0892 36.0146C19.2355 35.9415 19.4549 35.8318 19.5645 35.7221C19.6377 35.649 19.7108 35.6124 19.7108 35.6124C19.7108 35.6124 19.8205 35.5393 19.9302 35.4662C20.0399 35.3931 20.113 35.3199 20.1496 35.3199C20.1496 35.3199 20.2592 35.2834 20.3324 35.2102C20.4055 35.1371 20.5517 35.0274 20.6614 34.9543C20.7711 34.8812 20.8443 34.808 20.8443 34.808C20.8443 34.808 20.8808 34.7715 20.9174 34.7715C20.9539 34.7715 20.9905 34.7349 20.9905 34.6984C20.9905 34.6618 21.0271 34.6252 21.0636 34.6252C21.1368 34.6252 21.5755 34.3327 21.6121 34.2596C21.6121 34.223 21.6852 34.223 21.7218 34.223C21.7583 34.223 21.9046 34.1499 22.0143 34.0402C22.124 33.9305 22.3068 33.8208 22.4165 33.7477C22.5262 33.6746 22.5993 33.6015 22.5993 33.5649C22.5993 33.5283 22.6358 33.5283 22.6358 33.5283C22.6724 33.5283 22.7455 33.4918 22.8552 33.4186C22.9649 33.3455 23.0746 33.2724 23.1477 33.2358C23.2209 33.1993 23.2574 33.1627 23.2574 33.1627C23.2574 33.1261 23.3305 33.053 23.4402 33.0165C23.5499 32.9433 23.6962 32.8702 23.7327 32.8336C23.7693 32.7971 24.0618 32.5777 24.3909 32.3949C24.6834 32.2121 24.9759 31.9927 25.049 31.9561C25.1221 31.883 25.2318 31.8464 25.2684 31.8099C25.3415 31.7733 25.3781 31.7367 25.3781 31.7002C25.3781 31.6636 25.4146 31.6271 25.4512 31.6271C25.4878 31.6271 25.5243 31.5905 25.5243 31.5905C25.5243 31.5539 25.634 31.4808 25.8168 31.4077C25.9631 31.3346 26.1093 31.2249 26.1093 31.2249C26.1093 31.1883 26.1459 31.1883 26.1459 31.1883C26.1825 31.1883 26.2556 31.1883 26.3287 31.1152C26.475 30.9689 27.389 30.3839 27.4256 30.3839C27.4622 30.3839 27.5353 30.3108 27.645 30.2011C27.7547 30.0914 27.8278 30.0183 27.8644 30.0548C27.9009 30.0548 27.9375 30.0183 27.9741 29.9817C28.0106 29.9086 28.0472 29.9086 28.0472 29.9086C28.0472 29.9452 28.1203 29.9086 28.1934 29.8355C28.2666 29.7623 28.3397 29.7258 28.3762 29.7623C28.4128 29.7623 28.4128 29.7623 28.4128 29.6892C28.4128 29.6527 28.4494 29.6161 28.4494 29.6161C28.5225 29.6527 28.8516 29.4333 28.9613 29.287C29.0344 29.2139 29.1075 29.1408 29.1441 29.1408C29.1806 29.1408 29.2172 29.1042 29.2538 29.0676C29.6194 28.7751 29.7291 28.702 29.7291 28.7386C29.7291 28.7751 29.7656 28.7386 29.8022 28.6654C29.8388 28.5923 29.8753 28.5558 29.9119 28.5923C29.9485 28.6289 29.985 28.5923 29.985 28.5923C29.985 28.5558 30.0947 28.4826 30.241 28.4095C30.3872 28.3364 30.4969 28.2267 30.4969 28.2267L30.5335 28.1901C30.57 28.1901 31.155 27.8245 31.2282 27.7148C31.2647 27.6782 31.2647 27.6782 31.2647 27.6782C31.2647 27.7148 31.411 27.6051 31.5938 27.4223C31.6304 27.3857 31.7035 27.3492 31.7035 27.3492C31.74 27.3492 32.1057 27.0932 32.3251 26.9104C32.4347 26.8007 32.5444 26.7276 32.581 26.7276C32.6176 26.7276 32.7638 26.6179 32.8735 26.5082C32.9832 26.3985 33.166 26.2888 33.2026 26.2888C33.2391 26.2888 33.3123 26.2157 33.3854 26.1426C33.4585 26.0695 33.5316 25.9963 33.5682 25.9963C33.6048 25.9963 33.7145 25.9232 33.7876 25.8501C33.8607 25.777 33.9704 25.7038 34.007 25.7038C34.0435 25.7038 34.1532 25.6307 34.2629 25.521C34.3726 25.4113 34.4457 25.3748 34.4457 25.3748C34.4457 25.4113 34.4823 25.3748 34.5554 25.3016C34.6285 25.2285 34.7748 25.1188 34.8845 25.0457C34.9942 24.9726 35.177 24.8263 35.2501 24.7166C35.3232 24.6069 35.4329 24.5338 35.4695 24.5338C35.506 24.5338 35.5792 24.4607 35.6523 24.3876C35.6889 24.3144 35.762 24.2413 35.7986 24.2413C35.8351 24.2413 35.9082 24.1682 35.9814 24.0951C36.0545 24.0219 36.2739 23.8026 36.4933 23.6197C36.6761 23.4369 36.8589 23.2541 36.8223 23.2541C36.7858 23.2541 36.8589 23.181 36.8954 23.181C36.932 23.1444 36.9686 23.1079 36.9686 23.1079C36.9686 23.1079 36.9686 23.0713 37.0051 23.0713C37.0783 23.1079 37.4439 22.7422 37.4439 22.6691C37.4439 22.6325 37.517 22.5594 37.5901 22.4863C37.6633 22.4132 37.8461 22.2304 37.9558 22.0475C38.102 21.8647 38.2117 21.7185 38.2483 21.6819C38.2848 21.6453 38.2848 21.6453 38.2483 21.6453C38.2117 21.6453 38.2848 21.5722 38.3945 21.4625C38.5042 21.3528 38.5773 21.2431 38.5773 21.2066C38.5773 21.17 38.6139 21.0969 38.6505 21.0603C38.7602 20.9506 39.0892 20.4388 39.0527 20.4022C39.0527 20.3656 39.0892 20.3656 39.1258 20.3656C39.1624 20.3656 39.1624 20.3291 39.1624 20.3291C39.1258 20.2925 39.1989 20.1828 39.272 20.0731C39.3452 19.9634 39.4183 19.8538 39.3817 19.8538C39.3452 19.8538 39.4183 19.7075 39.528 19.5247C39.6377 19.3419 39.7108 19.1956 39.6742 19.1956C39.6377 19.1956 39.6742 19.1225 39.7474 19.0128C39.8936 18.7569 40.2592 17.5137 40.2958 17.2578C40.2958 17.1481 40.3689 16.819 40.4055 16.5996C40.4786 16.3437 40.5152 15.9781 40.5152 15.7587C40.5152 15.5393 40.5518 15.3931 40.5518 15.3931C40.5883 15.3931 40.5883 13.7843 40.5883 11.8464V8.29982L40.3689 8.117C40.2593 8.00731 40.1496 7.93419 40.113 7.93419C40.0764 7.93419 39.9667 7.86106 39.8936 7.78794C39.7839 7.71481 39.6742 7.64168 39.6011 7.67825C39.5645 7.71481 39.528 7.71481 39.5645 7.67825C39.6011 7.64168 39.3817 7.4223 39.0892 7.27605C38.9795 7.20292 38.7602 7.09323 38.5773 6.98354C38.3945 6.87385 38.2117 6.80073 38.2117 6.76417C38.1752 6.72761 37.9558 6.61792 37.8826 6.65448C37.8461 6.65448 37.8461 6.65448 37.8461 6.61791C37.8461 6.58135 37.6998 6.50822 37.5536 6.4351C37.3708 6.36197 37.2611 6.28885 37.2611 6.25228C37.2611 6.21572 37.2611 6.21572 37.2245 6.21572C37.188 6.25229 37.0783 6.17916 36.932 6.10603C36.7858 6.03291 36.6395 5.95978 36.6395 5.99634C36.6029 6.03291 36.6029 5.99635 36.6029 5.95978C36.6029 5.92322 36.5664 5.88665 36.5298 5.92322C36.4933 5.95978 36.4567 5.92321 36.4567 5.88665C36.4567 5.85009 36.4201 5.81353 36.347 5.81353C36.3104 5.81353 36.1276 5.7404 35.9448 5.66728C35.506 5.4479 35.506 5.41133 35.506 7.31261V9.03108L36.0911 9.32358C36.4201 9.46984 36.7126 9.65265 36.7858 9.68921C36.8589 9.72578 36.932 9.79891 36.9686 9.79891C37.0051 9.79891 37.1148 9.83546 37.1879 9.90859C37.2611 9.98172 37.3708 10.0183 37.3708 9.98172C37.4073 9.94516 37.4439 12.6143 37.4073 13.7477C37.4073 15.0274 37.1514 17.0018 36.8954 17.8428C36.8223 18.0622 36.7492 18.2815 36.7492 18.3181C36.7126 18.5009 36.5664 18.9762 36.5298 18.9762C36.4933 18.9762 36.4933 19.0128 36.5298 19.0494C36.5664 19.0859 36.5298 19.1225 36.4933 19.1225C36.4567 19.1225 36.4201 19.1591 36.4201 19.1956C36.4201 19.3419 35.762 20.585 35.6889 20.585C35.6523 20.585 35.6523 20.6216 35.6523 20.6581C35.6523 20.7313 35.5426 20.8775 35.2501 21.2431C35.2135 21.2797 35.1039 21.3894 35.0307 21.4625C34.9576 21.5357 34.8845 21.6088 34.921 21.6088C34.9576 21.6088 34.8479 21.7185 34.7017 21.8647C34.5554 22.011 34.4457 22.1572 34.4823 22.1572C34.4823 22.1572 34.4457 22.2303 34.3726 22.2669C34.2995 22.3035 34.2263 22.3766 34.2263 22.4132C34.2263 22.4863 32.9832 23.7294 32.9101 23.7294C32.8735 23.7294 32.7638 23.8391 32.6541 23.9488C32.5444 24.0585 32.4713 24.1682 32.5079 24.1316C32.581 24.0951 32.581 24.0951 32.5444 24.1316C32.5079 24.1682 32.4713 24.2048 32.4347 24.2048C32.3982 24.2048 32.2885 24.2779 32.1788 24.3876C32.0691 24.4973 31.996 24.5704 31.9594 24.5704C31.9594 24.5704 31.74 24.7166 31.5207 24.8995C31.3013 25.0823 30.826 25.4845 30.4969 25.7404C30.1678 25.9963 29.8388 26.2889 29.8022 26.3254C29.7656 26.3985 29.6925 26.4351 29.6194 26.4351C29.5828 26.4351 29.5097 26.4717 29.4731 26.5448C29.4366 26.6179 29.3634 26.6545 29.3269 26.6545C29.2903 26.6545 29.2172 26.691 29.1806 26.7642C29.1441 26.8373 29.0709 26.8739 29.0344 26.8739C28.9613 26.8739 28.23 27.4589 28.1934 27.5686C28.1934 27.6051 28.1203 27.6051 28.0837 27.6051C28.0472 27.6051 28.0106 27.6417 28.0106 27.6782C28.0106 27.7148 27.9741 27.7514 27.9375 27.7514C27.9009 27.7514 27.7912 27.8245 27.7181 27.8976C27.645 27.9708 27.4987 28.117 27.389 28.1901C27.2794 28.2633 27.1697 28.3729 27.0965 28.4095C27.06 28.4461 26.9868 28.4826 26.9503 28.4826C26.9137 28.4826 26.804 28.5923 26.6578 28.702C26.3287 28.9945 26.3287 28.9945 25.9265 29.287C25.7071 29.4333 25.4878 29.6161 25.4146 29.6892C25.3415 29.7623 25.2318 29.8355 25.1953 29.8355C25.1587 29.8355 25.1221 29.872 25.0856 29.872C25.0856 29.9086 24.9028 30.0548 24.6834 30.2011C24.464 30.3473 24.2812 30.4936 24.2812 30.5302C24.2446 30.5667 24.2081 30.6033 24.1715 30.6033C24.1349 30.6033 24.0252 30.6764 23.9521 30.7495C23.879 30.8227 23.7693 30.8958 23.7327 30.8958C23.6962 30.8958 23.623 30.9324 23.5499 31.0055C23.4037 31.1517 23.2574 31.2614 23.2209 31.2614C23.1843 31.2614 22.5627 31.7733 22.5262 31.8099C22.5262 31.8464 22.453 31.8464 22.4165 31.8464C22.3799 31.8464 22.2702 31.9196 22.1971 31.9927C22.0508 32.1389 22.0143 32.1389 21.9777 32.0293C21.9046 31.9561 21.9046 31.9561 21.9777 31.9927C22.0143 32.0293 22.0508 31.9927 22.0874 31.9196C22.124 31.8464 22.1605 31.7733 22.1971 31.7733C22.2337 31.7733 22.4165 31.6636 22.5627 31.4808C22.709 31.3346 22.8552 31.1883 22.8918 31.1883C22.9284 31.1883 23.0015 31.1152 23.038 31.042C23.1112 30.9689 23.1843 30.8958 23.2209 30.8958C23.294 30.8958 23.5865 30.6399 24.2081 30.0914C24.3177 30.0183 24.3909 29.9452 24.4274 29.9452C24.464 29.9452 24.5006 29.9086 24.5006 29.8355C24.5006 29.7989 24.5737 29.7258 24.6468 29.6892C24.8296 29.6161 25.0124 29.3967 24.9393 29.3601C24.9028 29.3236 24.9393 29.3236 24.9759 29.3601C25.0124 29.3967 25.1221 29.3601 25.2318 29.2505C25.4146 29.1042 25.4878 28.9945 26.0362 28.5558C26.219 28.4095 26.4384 28.1901 26.5481 28.117C26.6578 28.0073 26.7675 27.9342 26.7675 27.9342C26.7675 27.9342 26.8406 27.8976 26.8406 27.8245C26.8772 27.7514 26.9503 27.6782 27.06 27.6051C27.1697 27.532 27.3525 27.3857 27.4987 27.2761C27.645 27.1664 27.9009 26.9104 28.0472 26.7642C28.23 26.6179 28.4128 26.4351 28.4859 26.362C28.5591 26.2888 28.7419 26.1426 28.8881 25.9963C29.0344 25.8867 29.1441 25.777 29.1075 25.777C29.0709 25.777 29.1441 25.7038 29.2172 25.6673C29.4366 25.521 29.9119 25.0091 29.8753 25.0091C29.8388 25.0091 29.9485 24.8995 30.0581 24.7898C30.1678 24.6801 30.2775 24.5704 30.2775 24.5338C30.2775 24.5338 30.3872 24.3876 30.5335 24.2413C30.6797 24.0951 30.7894 23.9488 30.7894 23.9122C30.7894 23.8757 30.8625 23.8026 30.9357 23.7294C31.0088 23.6563 31.1185 23.5466 31.155 23.4735C31.2282 23.3638 31.4841 22.9982 31.7766 22.596C31.8863 22.4497 31.9594 22.3035 31.9229 22.3035C31.8863 22.2669 31.9229 22.2669 31.9594 22.2669C31.996 22.2669 32.0691 22.1207 32.1788 21.9744C32.2519 21.8282 32.3616 21.6088 32.4347 21.5356C32.5079 21.4625 32.5444 21.3528 32.5444 21.2797C32.5444 21.2066 32.581 21.17 32.581 21.17C32.6541 21.17 32.9832 20.4753 32.9466 20.3656C32.9466 20.3291 32.9832 20.3291 33.0198 20.3291C33.0563 20.3291 33.0563 20.2925 33.0563 20.2559C33.0198 20.2194 33.0563 20.1828 33.0929 20.1828C33.1294 20.1828 33.166 20.1097 33.166 20.0366C33.166 19.9634 33.2391 19.8172 33.3123 19.6709C33.3854 19.5247 33.422 19.415 33.422 19.3419C33.422 19.3053 33.4951 19.0494 33.6048 18.7934C33.8241 18.0987 34.0801 17.1846 34.0435 17.1115C34.0435 17.075 34.0435 16.9287 34.0801 16.7824C34.2263 16.1609 34.2995 15.1005 34.2629 14.6252C34.2263 14.2596 34.2629 14.1499 34.2995 14.1499C34.336 14.1499 34.3726 12.6874 34.3726 8.33638C34.3726 3.25411 34.3726 2.52285 34.2995 2.52285C34.2629 2.52285 34.1166 2.48629 34.007 2.44972C33.5682 2.26691 32.8004 1.9744 32.4713 1.90128C32.2519 1.82815 32.0691 1.79159 32.0326 1.75503C31.996 1.71847 31.8863 1.71846 31.8132 1.6819C31.74 1.6819 31.5572 1.60877 31.3744 1.53565C31.1916 1.46252 31.0454 1.42596 31.0088 1.42596H30.9722C30.9722 1.42596 30.8991 1.42596 30.7894 1.42596C30.7163 1.42596 30.4603 1.35283 30.241 1.27971C30.0216 1.20658 29.7656 1.13345 29.656 1.13345C29.5463 1.13345 29.2903 1.06033 29.0709 0.987202C28.8516 0.914076 28.5956 0.877512 28.5225 0.877512C28.4494 0.877512 28.3397 0.840952 28.2666 0.840952C28.1203 0.767826 27.2062 0.621569 26.9137 0.585006C26.7675 0.585006 26.2922 0.475319 25.8534 0.402193C25.4146 0.329067 24.9393 0.25594 24.8296 0.25594C24.6834 0.25594 24.2081 0.219376 23.7693 0.14625C23.3305 0.109687 22.453 0.0365631 21.868 0C21.1002 0.438757 20.7711 0.438758 19.528 0.475321ZM23.1477 4.71663C23.5134 4.7532 24.1715 4.86289 24.4274 4.97257C24.464 5.00914 24.5737 5.00914 24.6102 5.04571C24.7199 5.08227 25.5609 5.48446 25.7803 5.59415C26.1825 5.85009 26.3287 5.95978 26.5847 6.25228C26.9868 6.69104 27.0965 6.80073 27.0965 6.87386C27.0965 6.91042 27.1331 6.94698 27.1697 6.98354C27.2062 7.02011 27.3525 7.20292 27.4622 7.45887C27.5719 7.67824 27.6815 7.86106 27.7181 7.8245C27.7181 7.8245 27.7547 7.8245 27.7547 7.86106C27.7547 8.00731 27.8278 8.33638 27.9009 8.48263C28.1203 9.03108 28.1203 20.2194 27.9375 20.7678C27.9009 20.841 27.8644 20.9872 27.8278 21.0603C27.7912 21.17 27.7547 21.2797 27.7547 21.2797C27.7547 21.3163 27.7547 21.3528 27.7181 21.3528C27.7181 21.3528 27.6815 21.3894 27.6815 21.426C27.645 21.5356 27.3159 22.1572 27.2062 22.2669C27.1331 22.34 27.0965 22.4132 27.1331 22.4132C27.1331 22.4132 26.9137 22.7057 26.6212 22.9982C26.3287 23.2907 26.0728 23.5466 26.0728 23.5101C26.0728 23.4735 25.9996 23.5101 25.8168 23.6929C25.7803 23.7294 25.6706 23.766 25.5975 23.8026C25.5243 23.8391 25.4146 23.9123 25.3415 23.9488C25.2684 23.9854 25.1953 24.0585 25.1587 24.0219C25.1221 24.0219 25.1221 24.0219 25.1221 24.0585C25.1221 24.0951 25.049 24.1316 24.9759 24.1316C24.9028 24.1316 24.7931 24.1682 24.7199 24.2048C24.6468 24.2413 24.5371 24.2779 24.5006 24.2779C24.4274 24.2779 24.3909 24.3144 24.4274 24.351C24.464 24.3876 24.4274 24.3876 24.4274 24.3876C24.3909 24.351 24.1715 24.3876 23.9521 24.4607C23.7327 24.5338 23.3671 24.607 23.1112 24.607C22.8552 24.6435 22.5627 24.6801 22.453 24.6801C22.3433 24.7166 22.124 24.7166 21.9777 24.7166C21.4658 24.7532 13.3123 24.7532 13.2757 24.7166C13.2391 24.6801 13.8973 23.9854 14.3726 23.5101C14.5188 23.3638 14.6651 23.2176 14.6285 23.2176C14.592 23.2176 14.6285 23.181 14.7017 23.1079L14.8479 22.9982V14.5521V6.10603L14.592 5.88665C14.4457 5.77696 14.336 5.63071 14.336 5.59415C14.336 5.52103 13.8973 5.11883 13.8607 5.11883C13.8241 5.11883 13.7876 5.0457 13.7145 4.93602C13.6413 4.82633 13.5316 4.68007 13.4219 4.57038L13.2391 4.38757L18.0289 4.42413C20.5883 4.68007 22.9283 4.71663 23.1477 4.71663ZM19.3817 14.6984V21.3528L20.698 21.3163C22.0874 21.2797 22.3068 21.2431 22.5993 20.9506C22.6724 20.8775 22.7455 20.841 22.7455 20.8775C22.7455 20.9872 23.0015 20.6581 23.1843 20.3291L23.3671 19.9634V14.5521C23.3671 8.48263 23.4037 9.1042 22.8552 8.55576C22.709 8.4095 22.5262 8.26325 22.4896 8.29982C22.453 8.29982 22.4165 8.29982 22.4165 8.29982C22.3433 8.117 21.7583 8.04388 20.5883 8.04388H19.3817V14.6984ZM113.678 10.2742C113.678 10.2742 112.837 10.3108 111.813 10.3474C110.46 10.3839 109.802 10.4205 109.217 10.4936C108.815 10.5667 108.449 10.6033 108.413 10.6033C108.413 10.6033 108.12 10.6399 107.828 10.713C107.535 10.7861 107.243 10.8227 107.206 10.8592C107.133 10.8592 107.097 12.0293 107.097 20.7678V30.6399H109.437H111.777V22.6325V14.6252L111.959 14.5887C112.289 14.5155 113.897 14.5155 114.007 14.5887C114.044 14.6252 114.117 14.6252 114.117 14.6252C114.226 14.5155 115.067 15.1371 115.067 15.2834C115.067 15.3199 115.104 15.3565 115.14 15.3565C115.177 15.3565 115.214 15.3931 115.177 15.3931C115.177 15.4296 115.214 15.5393 115.25 15.6856C115.287 15.8684 115.323 17.8428 115.323 23.2907V30.6399H117.407H119.491V22.8154V14.9909L119.967 14.8446C121.283 14.4424 122.636 14.7715 122.819 15.5027C122.855 15.5759 122.892 15.6856 122.892 15.7221C122.928 15.7587 122.928 15.7952 122.928 15.8318C122.928 15.8684 122.928 19.1956 122.928 23.2907V30.6764H125.305H127.682L127.645 22.596C127.645 15.2468 127.608 14.479 127.535 14.1499C127.462 13.9305 127.426 13.7112 127.426 13.638C127.426 13.5649 127.353 13.3821 127.316 13.2358C127.279 13.0896 127.206 12.9799 127.206 12.9433C127.206 12.8702 126.877 12.3949 126.841 12.3583C126.804 12.3583 126.804 12.3218 126.804 12.2852C126.804 12.2486 126.475 11.9196 126.036 11.5174C125.853 11.3711 125.378 11.0786 125.342 11.0786C125.305 11.0786 125.305 11.0786 125.305 11.042C125.305 11.0055 125.232 10.9689 125.122 10.9324C125.012 10.8958 124.939 10.8592 124.903 10.8227C124.866 10.7861 124.793 10.7495 124.72 10.7495C124.647 10.7495 124.574 10.713 124.537 10.713C124.464 10.6764 123.989 10.5302 123.66 10.4936C123.221 10.4205 122.636 10.4205 120.588 10.4205C120.296 10.4205 119.565 10.5302 119.345 10.6033C119.236 10.6399 119.053 10.6764 118.98 10.6399C118.906 10.6399 118.797 10.6399 118.76 10.6764C118.724 10.713 118.65 10.713 118.577 10.7495C118.431 10.7861 117.407 11.1517 117.334 11.1883C117.298 11.2249 117.225 11.1883 117.115 11.1152C116.932 10.9689 116.347 10.713 116.237 10.713C116.201 10.713 116.164 10.713 116.164 10.6764C116.164 10.6399 116.128 10.6399 116.055 10.6399C115.981 10.6399 115.725 10.6033 115.506 10.5302C115.25 10.457 114.775 10.4205 114.446 10.4205C114.117 10.4205 113.824 10.3839 113.788 10.3474C113.751 10.2742 113.714 10.2742 113.678 10.2742ZM45.7071 10.6764C45.7071 10.7495 45.7803 10.8958 45.89 10.9689C45.9631 11.0786 46.0362 11.1517 46.0362 11.1517C46.0362 11.1517 46.0728 11.2249 46.1459 11.3346C46.219 11.4442 46.2922 11.5174 46.2922 11.5539C46.2922 11.5905 46.3653 11.6636 46.4384 11.7733C46.5115 11.8464 46.5847 11.9561 46.5481 11.9927C46.5481 12.0293 46.5481 12.0292 46.5847 12.0292C46.6212 12.0292 46.7309 12.1389 46.804 12.2852L46.9503 12.5411V20.6947V28.8483L46.7675 29.0676C46.6578 29.1773 46.5847 29.287 46.5847 29.3236C46.5847 29.3601 46.5115 29.4333 46.4384 29.5064C46.3653 29.5795 46.2556 29.7623 46.219 29.872C46.1825 29.9817 46.1093 30.0548 46.0728 30.0548C46.0362 30.0548 46.0362 30.0548 46.0362 30.0914C46.0362 30.128 45.9996 30.2011 45.89 30.2742C45.4146 30.6764 45.2684 30.6764 49.656 30.6399C54.1167 30.6399 55.2867 30.6033 55.8717 30.3839C56.0911 30.3108 56.347 30.2377 56.4201 30.2377C56.5664 30.2011 56.9686 30.0183 57.2245 29.9086C57.2611 29.872 57.4805 29.7623 57.6633 29.6527C58.1386 29.3967 58.8333 28.8117 58.8333 28.6654C58.8333 28.5923 58.8699 28.5558 58.8699 28.5558C58.943 28.5558 59.2355 28.2633 59.2355 28.1536C59.2355 28.117 59.3086 28.0073 59.3817 27.8976C59.5646 27.6417 59.8571 26.9835 59.8936 26.7276C59.8936 26.6179 59.9668 26.4351 60.0033 26.362C60.2593 25.777 60.113 14.2596 59.8571 14.2596C59.8205 14.2596 59.8205 14.223 59.8571 14.1865C59.8936 14.1133 59.4914 13.1627 59.3817 13.1627C59.3452 13.1627 59.2721 13.053 59.1989 12.9068C59.0527 12.6143 58.2483 11.8099 58.1386 11.8099C58.102 11.8099 58.0655 11.7733 58.0655 11.7733C58.0655 11.7002 57.773 11.5174 57.6998 11.4808C57.6633 11.4808 57.517 11.4077 57.4073 11.3346C57.2976 11.2614 57.1148 11.1883 57.0417 11.1517C56.9686 11.1152 56.8589 11.0786 56.8223 11.0786C56.7492 11.042 56.3104 10.8592 56.1642 10.8592C56.1276 10.8592 55.7986 10.7861 55.4695 10.713C54.7017 10.5667 55.3598 10.5667 50.1678 10.5302L45.7803 10.4936L45.7071 10.6764ZM62.4896 10.6033C62.453 10.6399 62.453 15.1371 62.453 20.6216V30.6033H64.7931H67.1331V27.1298V23.6563L68.5956 23.6929C69.4 23.6929 70.1313 23.7294 70.2044 23.766C70.2775 23.8026 70.3507 23.8026 70.3507 23.8026C70.4238 23.8026 70.7163 24.0951 70.7894 24.2779C70.8991 24.4607 70.8991 24.7898 70.8991 27.5686V30.6399H73.3123H75.7254L75.6889 27.4954C75.6889 25.777 75.6523 24.2779 75.6157 24.2048C75.5792 24.1316 75.5426 23.9123 75.5061 23.766C75.4329 23.4369 75.2136 23.0347 75.1404 23.0347C75.1039 23.0347 75.1039 22.9982 75.1404 22.9616C75.177 22.925 75.1404 22.8519 75.1039 22.8154C75.0673 22.7788 74.9942 22.6691 74.9576 22.596C74.9211 22.5229 74.8479 22.4497 74.8479 22.4863C74.8114 22.4863 74.6285 22.3766 74.4092 22.2304C74.1898 22.0841 73.8973 21.9378 73.7145 21.9013L73.422 21.8282L73.751 21.6088C73.9338 21.4991 74.0801 21.3528 74.1167 21.3163C74.1532 21.2797 74.1898 21.2431 74.2264 21.2431C74.2995 21.2431 74.592 20.9506 74.592 20.8775C74.592 20.841 74.6651 20.7678 74.7017 20.7313C74.7748 20.6581 74.8114 20.585 74.8114 20.5484C74.8114 20.5119 74.8479 20.4753 74.8845 20.4388C74.9576 20.4022 75.1404 19.9634 75.2136 19.5978C75.3232 19.1225 75.2867 13.8574 75.1404 13.2724C75.0673 13.0165 74.7748 12.3583 74.7382 12.3583C74.7017 12.3583 74.6651 12.3218 74.6651 12.2486C74.6285 12.1024 74.0435 11.5174 73.9704 11.5174C73.9338 11.5174 73.8973 11.4808 73.8242 11.4077C73.7145 11.298 73.0198 10.9689 72.8004 10.9324C72.7273 10.9324 72.5079 10.8592 72.3251 10.8227C72.1423 10.7861 71.7401 10.713 71.411 10.6764C70.826 10.5302 62.5627 10.5302 62.4896 10.6033ZM81.8315 10.6399C81.5755 10.6764 81.2099 10.7495 81.0271 10.7861C80.8077 10.8227 80.6249 10.8958 80.5883 10.8958C80.5518 10.8958 80.4421 10.9324 80.3689 10.9689C80.0764 11.0786 79.8571 11.1517 79.8205 11.1517C79.8205 11.1517 79.7839 11.1883 79.7474 11.2249C79.7108 11.2614 79.6742 11.298 79.6011 11.298C79.528 11.298 79.4183 11.3711 79.3452 11.4808C79.2355 11.5905 79.1624 11.6271 79.1258 11.6271C79.1258 11.6271 79.0161 11.7002 78.943 11.8464C78.8333 11.9561 78.7236 12.1389 78.6505 12.2121C78.5408 12.3218 78.3945 12.5411 78.3945 12.6874C78.3945 12.7239 78.358 12.7971 78.2849 12.8336C78.2483 12.9068 78.2117 12.9799 78.2483 13.0165C78.2849 13.053 78.2483 13.0896 78.2117 13.0896C78.1386 13.0896 77.9192 13.7477 77.8827 14.1133C77.8461 14.5887 77.8461 26.7276 77.8827 27.0932C77.9192 27.4589 78.2117 28.3364 78.3214 28.4461C78.358 28.4826 78.4311 28.5923 78.4677 28.702C78.5408 28.9214 79.1258 29.543 79.2355 29.543C79.2721 29.543 79.3086 29.5795 79.3086 29.6161C79.3452 29.6527 79.3817 29.7258 79.3817 29.7258C79.4183 29.7258 79.5646 29.8355 79.7474 29.9452C79.9302 30.0548 80.1496 30.1645 80.2227 30.2011C80.2958 30.2011 80.5152 30.2742 80.698 30.3474C81.2099 30.5302 82.124 30.5667 85.5975 30.6033H88.7053V28.702V26.8007H85.8534C84.2812 26.8007 82.9649 26.7642 82.9284 26.7276C82.8918 26.691 82.7821 26.5814 82.6724 26.4717L82.4896 26.2523V24.351V22.4497H85.2318H87.9741V20.585V18.7203H85.2318H82.4896V16.8556V14.9909L82.6724 14.7349C82.9284 14.3693 82.8918 14.3693 85.9631 14.3693H88.7419V12.468V10.5667H85.5243C83.7328 10.5667 82.0874 10.6033 81.8315 10.6399ZM91.0088 10.6033C90.9722 10.6399 90.9722 15.1371 90.9722 20.6216V30.6033H93.3488H95.7254V27.1298V23.6563H97.6998H99.6742V27.1298V30.6033H102.087H104.501L104.464 22.925C104.464 15.8684 104.427 15.2468 104.354 14.8812C104.281 14.6618 104.245 14.4424 104.245 14.3693C104.245 14.2962 104.208 14.2596 104.172 14.223C104.135 14.1865 104.135 14.1499 104.135 14.0768C104.135 14.0402 104.062 13.8574 104.025 13.7477C103.952 13.6015 103.916 13.4552 103.916 13.4186C103.916 13.3821 103.879 13.3455 103.842 13.3455C103.806 13.3455 103.769 13.309 103.806 13.309C103.842 13.1993 103.404 12.6143 103.367 12.6508C103.331 12.6874 103.331 12.6508 103.331 12.6143C103.367 12.5411 102.746 11.883 102.636 11.883C102.599 11.883 102.563 11.8464 102.563 11.8464C102.49 11.7367 101.941 11.3711 101.831 11.4077C101.795 11.4077 101.795 11.4077 101.795 11.3711C101.795 11.298 100.881 10.9324 100.625 10.8958C100.552 10.8958 100.332 10.8592 100.223 10.8227C100.076 10.7861 99.9668 10.7861 99.9302 10.7861C99.8936 10.8227 99.8571 10.7861 99.8205 10.7495C99.6377 10.5667 91.1551 10.457 91.0088 10.6033ZM131.959 10.8958C131.886 11.0786 131.813 11.4077 131.74 11.5905C131.667 11.7733 131.63 11.9927 131.594 12.0292C131.594 12.1024 131.448 12.468 131.338 12.9068C131.192 13.309 131.082 13.7477 131.045 13.8574C131.045 13.9671 130.972 14.1133 130.936 14.1865C130.899 14.2962 130.826 14.4059 130.826 14.5155C130.826 14.5887 130.789 14.6618 130.789 14.6618C130.789 14.6618 130.753 14.6984 130.753 14.7715C130.716 14.8812 130.826 14.8812 131.777 14.8812H132.8V22.7422V30.6033H135.177H137.554V20.585V10.5667H134.811H132.069L131.959 10.8958ZM140.917 10.6399C140.844 10.8592 140.698 11.3346 140.625 11.4442C140.588 11.5174 140.588 11.5905 140.588 11.6271C140.588 11.6636 140.552 11.7733 140.515 11.883C140.479 11.9927 140.406 12.2121 140.332 12.3583C140.296 12.5046 140.186 12.7605 140.15 12.9433C140.076 13.1261 140.04 13.2724 140.04 13.2724C140.04 13.309 140.003 13.4552 139.894 13.7843C139.784 14.0768 139.747 14.223 139.638 14.6984L139.601 14.8812H140.661H141.722V22.7422V30.6033H144.062H146.402V20.585V10.5667H143.696C141.539 10.5667 140.917 10.5667 140.917 10.6399ZM69.9119 14.1865C70.1313 14.3327 70.241 14.4424 70.3872 14.6984L70.57 15.0274V17.0018V18.9762L70.3872 19.3053C70.2775 19.4881 70.2044 19.5978 70.1679 19.5978C70.1313 19.5978 70.0947 19.5978 70.0582 19.6709C69.8753 19.8538 69.5097 19.8903 68.3397 19.9269L67.1697 19.9634V16.9653V13.9671L68.4128 14.0037L69.656 14.0402L69.9119 14.1865ZM98.8333 14.1499C99.0161 14.2596 99.1258 14.2962 99.1258 14.223C99.1258 14.1865 99.1624 14.1865 99.1624 14.2596C99.1989 14.2962 99.2721 14.4424 99.3452 14.5521C99.6377 14.9543 99.6377 15.0274 99.6377 17.5503V19.9269H97.6633H95.6889V16.9287V13.9671L97.1148 14.0037C98.5408 14.0037 98.5774 14.0037 98.8333 14.1499ZM53.6779 14.223C53.8607 14.2596 54.0801 14.2962 54.1532 14.2962C54.2263 14.2962 54.336 14.3693 54.3726 14.4058C54.4092 14.4424 54.4457 14.4424 54.4457 14.4424C54.4457 14.4059 54.4823 14.4424 54.5189 14.5155C54.5554 14.5887 54.592 14.6252 54.592 14.5887C54.592 14.5155 54.8114 14.7715 55.0307 15.1006L55.2501 15.4296V20.6216C55.2501 25.5576 55.2135 25.8135 55.1039 25.9598C55.0307 26.0695 54.9942 26.1426 55.0307 26.1426C55.1039 26.1426 54.7748 26.4717 54.4823 26.6545C54.1532 26.9104 53.9338 26.947 52.7273 26.9836L51.6304 27.0201V20.5484V14.1499H52.4348C52.9832 14.1499 53.4951 14.1865 53.6779 14.223Z" fill="white"/>
<path fill-rule="evenodd" clip-rule="evenodd" d="M3.51517 6.61756C3.44204 6.72725 3.44204 6.72725 3.5883 6.65412C3.80767 6.54443 3.80768 6.54443 3.69799 6.54443C3.66142 6.54443 3.55173 6.581 3.51517 6.61756ZM27.6834 7.86071C27.6468 7.89727 27.7565 8.18977 27.793 8.18977C27.793 8.18977 27.7931 8.11665 27.7565 8.04352C27.7199 7.9704 27.7199 7.89727 27.7199 7.86071C27.7565 7.82414 27.7565 7.82414 27.7199 7.82414C27.6834 7.82414 27.7199 7.82414 27.6834 7.86071ZM111.011 10.3104C110.828 10.347 113.204 10.347 113.57 10.3104C113.68 10.3104 113.168 10.2739 112.473 10.2739C111.778 10.2739 111.084 10.2739 111.011 10.3104ZM113.753 10.2739C113.753 10.2739 113.936 10.3104 114.118 10.347C114.338 10.3836 114.411 10.347 114.301 10.347C114.155 10.2739 113.716 10.2373 113.753 10.2739ZM120.554 10.3104C120.48 10.347 120.554 10.347 120.736 10.3104C120.919 10.2739 121.065 10.2739 121.065 10.2373C121.139 10.2373 120.663 10.2739 120.554 10.3104ZM121.285 10.2739C121.687 10.3104 123.15 10.3104 123.04 10.2739C122.967 10.2373 122.528 10.2373 122.016 10.2373C121.504 10.2739 121.175 10.2739 121.285 10.2739ZM0.151367 12.358C0.151367 13.0527 0.151368 13.3452 0.187931 12.9795C0.187931 12.6139 0.187931 12.0289 0.187931 11.6998C0.151368 11.3342 0.151367 11.6633 0.151367 12.358ZM34.5572 15.0271C34.5572 15.2464 34.5572 15.3196 34.5938 15.2099C34.5938 15.1002 34.5938 14.9174 34.5938 14.8442C34.5572 14.7346 34.5572 14.8442 34.5572 15.0271ZM40.6998 15.1368C40.6998 15.283 40.6998 15.3196 40.7364 15.2464C40.7364 15.1733 40.7364 15.0636 40.7364 14.9905C40.7364 14.9539 40.6998 15.0271 40.6998 15.1368ZM82.5645 18.6834C82.6376 18.6834 82.7108 18.6834 82.7839 18.6834C82.857 18.6834 82.7839 18.6468 82.6742 18.6468C82.5645 18.6834 82.528 18.6834 82.5645 18.6834ZM83.1861 18.7199C83.3324 18.7199 83.5883 18.7199 83.7345 18.7199C83.8808 18.7199 83.7345 18.6834 83.442 18.6834C83.1495 18.6834 83.0398 18.6834 83.1861 18.7199ZM84.3927 18.7199C84.6121 18.7199 84.9411 18.7199 85.1605 18.7199C85.3799 18.7199 85.1971 18.6834 84.7949 18.6834C84.3927 18.6834 84.1733 18.6834 84.3927 18.7199ZM85.8918 18.7199C86.1111 18.7199 86.4402 18.7199 86.6596 18.7199C86.879 18.7199 86.6962 18.6834 86.294 18.6834C85.8918 18.6834 85.7089 18.6834 85.8918 18.7199ZM87.1715 18.7199C87.2446 18.7199 87.3543 18.7199 87.4274 18.7199C87.5005 18.7199 87.4274 18.6834 87.2812 18.6834C87.1349 18.6834 87.0983 18.6834 87.1715 18.7199ZM87.8662 18.6834C87.9759 18.7199 87.9759 18.8662 87.9759 20.5481V22.3762V20.5115C88.0124 18.7199 88.0124 18.6834 87.8662 18.6834C87.793 18.6834 87.793 18.6834 87.8662 18.6834ZM74.411 22.1934C74.6303 22.3397 74.74 22.3762 74.5938 22.2666C74.5207 22.1934 74.411 22.1569 74.3744 22.1569C74.3378 22.1203 74.3378 22.1569 74.411 22.1934Z" fill="#F01C24"/>
<path fill-rule="evenodd" clip-rule="evenodd" d="M3.51517 6.61756C3.44204 6.72725 3.44204 6.72725 3.5883 6.65412C3.80767 6.54443 3.80768 6.54443 3.69799 6.54443C3.66142 6.54443 3.55173 6.581 3.51517 6.61756ZM27.6834 7.86071C27.6468 7.89727 27.7565 8.18977 27.793 8.18977C27.793 8.18977 27.7931 8.11665 27.7565 8.04352C27.7199 7.9704 27.7199 7.89727 27.7199 7.86071C27.7565 7.82414 27.7565 7.82414 27.7199 7.82414C27.6834 7.82414 27.7199 7.82414 27.6834 7.86071ZM111.011 10.3104C110.828 10.347 113.204 10.347 113.57 10.3104C113.68 10.3104 113.168 10.2739 112.473 10.2739C111.778 10.2739 111.084 10.2739 111.011 10.3104ZM113.753 10.2739C113.753 10.2739 113.936 10.3104 114.118 10.347C114.338 10.3836 114.411 10.347 114.301 10.347C114.155 10.2739 113.716 10.2373 113.753 10.2739ZM120.554 10.3104C120.48 10.347 120.554 10.347 120.736 10.3104C120.919 10.2739 121.065 10.2739 121.065 10.2373C121.139 10.2373 120.663 10.2739 120.554 10.3104ZM121.285 10.2739C121.687 10.3104 123.15 10.3104 123.04 10.2739C122.967 10.2373 122.528 10.2373 122.016 10.2373C121.504 10.2739 121.175 10.2739 121.285 10.2739ZM0.151367 12.358C0.151367 13.0527 0.151368 13.3452 0.187931 12.9795C0.187931 12.6139 0.187931 12.0289 0.187931 11.6998C0.151368 11.3342 0.151367 11.6633 0.151367 12.358ZM34.5572 15.0271C34.5572 15.2464 34.5572 15.3196 34.5938 15.2099C34.5938 15.1002 34.5938 14.9174 34.5938 14.8442C34.5572 14.7346 34.5572 14.8442 34.5572 15.0271ZM40.6998 15.1368C40.6998 15.283 40.6998 15.3196 40.7364 15.2464C40.7364 15.1733 40.7364 15.0636 40.7364 14.9905C40.7364 14.9539 40.6998 15.0271 40.6998 15.1368ZM82.5645 18.6834C82.6376 18.6834 82.7108 18.6834 82.7839 18.6834C82.857 18.6834 82.7839 18.6468 82.6742 18.6468C82.5645 18.6834 82.528 18.6834 82.5645 18.6834ZM83.1861 18.7199C83.3324 18.7199 83.5883 18.7199 83.7345 18.7199C83.8808 18.7199 83.7345 18.6834 83.442 18.6834C83.1495 18.6834 83.0398 18.6834 83.1861 18.7199ZM84.3927 18.7199C84.6121 18.7199 84.9411 18.7199 85.1605 18.7199C85.3799 18.7199 85.1971 18.6834 84.7949 18.6834C84.3927 18.6834 84.1733 18.6834 84.3927 18.7199ZM85.8918 18.7199C86.1111 18.7199 86.4402 18.7199 86.6596 18.7199C86.879 18.7199 86.6962 18.6834 86.294 18.6834C85.8918 18.6834 85.7089 18.6834 85.8918 18.7199ZM87.1715 18.7199C87.2446 18.7199 87.3543 18.7199 87.4274 18.7199C87.5005 18.7199 87.4274 18.6834 87.2812 18.6834C87.1349 18.6834 87.0983 18.6834 87.1715 18.7199ZM87.8662 18.6834C87.9759 18.7199 87.9759 18.8662 87.9759 20.5481V22.3762V20.5115C88.0124 18.7199 88.0124 18.6834 87.8662 18.6834C87.793 18.6834 87.793 18.6834 87.8662 18.6834ZM74.411 22.1934C74.6303 22.3397 74.74 22.3762 74.5938 22.2666C74.5207 22.1934 74.411 22.1569 74.3744 22.1569C74.3378 22.1203 74.3378 22.1569 74.411 22.1934Z" fill="#F01C24"/>
<path fill-rule="evenodd" clip-rule="evenodd" d="M3.51517 6.61756C3.44204 6.72725 3.44204 6.72725 3.5883 6.65412C3.80767 6.54443 3.80768 6.54443 3.69799 6.54443C3.66142 6.54443 3.55173 6.581 3.51517 6.61756ZM27.6834 7.86071C27.6468 7.89727 27.7565 8.18977 27.793 8.18977C27.793 8.18977 27.7931 8.11665 27.7565 8.04352C27.7199 7.9704 27.7199 7.89727 27.7199 7.86071C27.7565 7.82414 27.7565 7.82414 27.7199 7.82414C27.6834 7.82414 27.7199 7.82414 27.6834 7.86071ZM111.011 10.3104C110.828 10.347 113.204 10.347 113.57 10.3104C113.68 10.3104 113.168 10.2739 112.473 10.2739C111.778 10.2739 111.084 10.2739 111.011 10.3104ZM113.753 10.2739C113.753 10.2739 113.936 10.3104 114.118 10.347C114.338 10.3836 114.411 10.347 114.301 10.347C114.155 10.2739 113.716 10.2373 113.753 10.2739ZM120.554 10.3104C120.48 10.347 120.554 10.347 120.736 10.3104C120.919 10.2739 121.065 10.2739 121.065 10.2373C121.139 10.2373 120.663 10.2739 120.554 10.3104ZM121.285 10.2739C121.687 10.3104 123.15 10.3104 123.04 10.2739C122.967 10.2373 122.528 10.2373 122.016 10.2373C121.504 10.2739 121.175 10.2739 121.285 10.2739ZM0.151367 12.358C0.151367 13.0527 0.151368 13.3452 0.187931 12.9795C0.187931 12.6139 0.187931 12.0289 0.187931 11.6998C0.151368 11.3342 0.151367 11.6633 0.151367 12.358ZM34.5572 15.0271C34.5572 15.2464 34.5572 15.3196 34.5938 15.2099C34.5938 15.1002 34.5938 14.9174 34.5938 14.8442C34.5572 14.7346 34.5572 14.8442 34.5572 15.0271ZM40.6998 15.1368C40.6998 15.283 40.6998 15.3196 40.7364 15.2464C40.7364 15.1733 40.7364 15.0636 40.7364 14.9905C40.7364 14.9539 40.6998 15.0271 40.6998 15.1368ZM82.5645 18.6834C82.6376 18.6834 82.7108 18.6834 82.7839 18.6834C82.857 18.6834 82.7839 18.6468 82.6742 18.6468C82.5645 18.6834 82.528 18.6834 82.5645 18.6834ZM83.1861 18.7199C83.3324 18.7199 83.5883 18.7199 83.7345 18.7199C83.8808 18.7199 83.7345 18.6834 83.442 18.6834C83.1495 18.6834 83.0398 18.6834 83.1861 18.7199ZM84.3927 18.7199C84.6121 18.7199 84.9411 18.7199 85.1605 18.7199C85.3799 18.7199 85.1971 18.6834 84.7949 18.6834C84.3927 18.6834 84.1733 18.6834 84.3927 18.7199ZM85.8918 18.7199C86.1111 18.7199 86.4402 18.7199 86.6596 18.7199C86.879 18.7199 86.6962 18.6834 86.294 18.6834C85.8918 18.6834 85.7089 18.6834 85.8918 18.7199ZM87.1715 18.7199C87.2446 18.7199 87.3543 18.7199 87.4274 18.7199C87.5005 18.7199 87.4274 18.6834 87.2812 18.6834C87.1349 18.6834 87.0983 18.6834 87.1715 18.7199ZM87.8662 18.6834C87.9759 18.7199 87.9759 18.8662 87.9759 20.5481V22.3762V20.5115C88.0124 18.7199 88.0124 18.6834 87.8662 18.6834C87.793 18.6834 87.793 18.6834 87.8662 18.6834ZM74.411 22.1934C74.6303 22.3397 74.74 22.3762 74.5938 22.2666C74.5207 22.1934 74.411 22.1569 74.3744 22.1569C74.3378 22.1203 74.3378 22.1569 74.411 22.1934Z" fill="#F01C24"/>
<path fill-rule="evenodd" clip-rule="evenodd" d="M3.51517 6.61756C3.44204 6.72725 3.44204 6.72725 3.5883 6.65412C3.80767 6.54443 3.80768 6.54443 3.69799 6.54443C3.66142 6.54443 3.55173 6.581 3.51517 6.61756ZM27.6834 7.86071C27.6468 7.89727 27.7565 8.18977 27.793 8.18977C27.793 8.18977 27.7931 8.11665 27.7565 8.04352C27.7199 7.9704 27.7199 7.89727 27.7199 7.86071C27.7565 7.82414 27.7565 7.82414 27.7199 7.82414C27.6834 7.82414 27.7199 7.82414 27.6834 7.86071ZM111.011 10.3104C110.828 10.347 113.204 10.347 113.57 10.3104C113.68 10.3104 113.168 10.2739 112.473 10.2739C111.778 10.2739 111.084 10.2739 111.011 10.3104ZM113.753 10.2739C113.753 10.2739 113.936 10.3104 114.118 10.347C114.338 10.3836 114.411 10.347 114.301 10.347C114.155 10.2739 113.716 10.2373 113.753 10.2739ZM120.554 10.3104C120.48 10.347 120.554 10.347 120.736 10.3104C120.919 10.2739 121.065 10.2739 121.065 10.2373C121.139 10.2373 120.663 10.2739 120.554 10.3104ZM121.285 10.2739C121.687 10.3104 123.15 10.3104 123.04 10.2739C122.967 10.2373 122.528 10.2373 122.016 10.2373C121.504 10.2739 121.175 10.2739 121.285 10.2739ZM0.151367 12.358C0.151367 13.0527 0.151368 13.3452 0.187931 12.9795C0.187931 12.6139 0.187931 12.0289 0.187931 11.6998C0.151368 11.3342 0.151367 11.6633 0.151367 12.358ZM34.5572 15.0271C34.5572 15.2464 34.5572 15.3196 34.5938 15.2099C34.5938 15.1002 34.5938 14.9174 34.5938 14.8442C34.5572 14.7346 34.5572 14.8442 34.5572 15.0271ZM40.6998 15.1368C40.6998 15.283 40.6998 15.3196 40.7364 15.2464C40.7364 15.1733 40.7364 15.0636 40.7364 14.9905C40.7364 14.9539 40.6998 15.0271 40.6998 15.1368ZM82.5645 18.6834C82.6376 18.6834 82.7108 18.6834 82.7839 18.6834C82.857 18.6834 82.7839 18.6468 82.6742 18.6468C82.5645 18.6834 82.528 18.6834 82.5645 18.6834ZM83.1861 18.7199C83.3324 18.7199 83.5883 18.7199 83.7345 18.7199C83.8808 18.7199 83.7345 18.6834 83.442 18.6834C83.1495 18.6834 83.0398 18.6834 83.1861 18.7199ZM84.3927 18.7199C84.6121 18.7199 84.9411 18.7199 85.1605 18.7199C85.3799 18.7199 85.1971 18.6834 84.7949 18.6834C84.3927 18.6834 84.1733 18.6834 84.3927 18.7199ZM85.8918 18.7199C86.1111 18.7199 86.4402 18.7199 86.6596 18.7199C86.879 18.7199 86.6962 18.6834 86.294 18.6834C85.8918 18.6834 85.7089 18.6834 85.8918 18.7199ZM87.1715 18.7199C87.2446 18.7199 87.3543 18.7199 87.4274 18.7199C87.5005 18.7199 87.4274 18.6834 87.2812 18.6834C87.1349 18.6834 87.0983 18.6834 87.1715 18.7199ZM87.8662 18.6834C87.9759 18.7199 87.9759 18.8662 87.9759 20.5481V22.3762V20.5115C88.0124 18.7199 88.0124 18.6834 87.8662 18.6834C87.793 18.6834 87.793 18.6834 87.8662 18.6834ZM74.411 22.1934C74.6303 22.3397 74.74 22.3762 74.5938 22.2666C74.5207 22.1934 74.411 22.1569 74.3744 22.1569C74.3378 22.1203 74.3378 22.1569 74.411 22.1934Z" fill="#F01C24"/>
</svg>
