<svg width="20" height="10" viewBox="0 0 20 10" fill="none" xmlns="http://www.w3.org/2000/svg">
<path fill-rule="evenodd" clip-rule="evenodd" d="M19.0625 0H15.3125C14.7947 0 14.375 0.419688 14.375 0.9375C14.375 1.45531 14.7947 1.875 15.3125 1.875H16.7991L12.7747 5.89969L12.2316 6.44281L12.1384 6.53594L10.9375 7.73687L6.60031 3.39969C6.43062 3.23 6.19656 3.125 5.9375 3.125C5.67875 3.125 5.44438 3.23 5.27469 3.39969L0.274687 8.39969C0.105 8.56938 0 8.80375 0 9.0625C0 9.58031 0.419688 10 0.9375 10C1.19625 10 1.43062 9.895 1.60031 9.72531L5.9375 5.38844L10.2747 9.72563C10.4444 9.895 10.6788 10 10.9375 10C11.1962 10 11.4306 9.895 11.6003 9.72531L13.4641 7.86125L18.125 3.20094V4.6875C18.125 5.20531 18.5447 5.625 19.0625 5.625C19.5803 5.625 20 5.20531 20 4.6875V0.9375C20 0.419688 19.5803 0 19.0625 0Z" fill="black"/>
</svg>
