<?xml version="1.0" encoding="utf-8"?>
<!-- Generator: Adobe Illustrator 22.1.0, SVG Export Plug-In . SVG Version: 6.00 Build 0)  -->
<svg version="1.1" id="Layer_1" xmlns="http://www.w3.org/2000/svg" xmlns:xlink="http://www.w3.org/1999/xlink" x="0px" y="0px"
	 viewBox="0 0 300 300" style="enable-background:new 0 0 300 300;" xml:space="preserve">
<g>
	<g>
		<path d="M284.7,283c-4.3-61.9-63.6-110.5-134.7-110.5c-71.1,0-130.4,48.6-134.7,110.8c-0.3,3.9,2.6,7.5,6.9,7.8c0.3,0,0.3,0,0.7,0
			c3.6,0,6.9-2.9,7.2-6.8c3.6-54.4,56.3-97.1,119.9-97.1c63.2,0,115.9,42.4,119.9,96.8c0.3,3.9,3.6,7.2,7.9,6.8
			C281.8,290.5,285.1,287.2,284.7,283z M150,157.5c41.5,0,75.1-33.2,75.1-74.3S191.5,8.9,150,8.9c-41.5,0-75.1,33.2-75.1,74.3
			S108.5,157.5,150,157.5z M150,23.9c32.9,0,59.9,26.7,59.9,59.3c0,32.6-27,59.3-59.9,59.3c-32.9,0-60-26.7-60-59.3
			C90,50.6,117.1,23.9,150,23.9z"/>
	</g>
</g>
</svg>
