<svg width="16" height="16" viewBox="0 0 16 16" fill="none" xmlns="http://www.w3.org/2000/svg">
<path d="M8 2.76636C9.44419 2.76636 12.3757 3.32053 15.6324 7.02664C15.8694 7.29736 16 7.64504 16 8.00505C16 8.36493 15.8694 8.71259 15.6324 8.98347C12.3757 12.6951 9.44416 13.2363 8 13.2363C6.55584 13.2363 3.62433 12.6949 0.367552 8.9796C0.130568 8.70875 0 8.36106 0 8.00118C0 7.64131 0.13058 7.29364 0.367552 7.02277C3.62433 3.3076 6.55584 2.76604 8 2.76604V2.76636ZM0.909111 8.50303C1.97063 9.71074 4.78481 12.5141 8 12.5141C11.2152 12.5141 14.0294 9.71061 15.0909 8.50303C15.2125 8.36414 15.2795 8.18584 15.2795 8.00125C15.2795 7.81666 15.2125 7.63834 15.0909 7.49947C14.0294 6.29176 11.2168 3.48838 8 3.48838C4.7832 3.48838 1.97063 6.29189 0.909111 7.49947C0.787473 7.63836 0.720481 7.81666 0.720481 8.00125C0.720481 8.18584 0.78747 8.36416 0.909111 8.50303Z" fill="#787878"/>
<path d="M7.99951 4.68014C8.87993 4.68253 9.72338 5.03434 10.3445 5.6583C10.9656 6.28222 11.3136 7.12728 11.3121 8.00773C11.3105 8.88806 10.9594 9.73183 10.336 10.3535C9.71267 10.9753 8.86787 11.324 7.98745 11.3232C7.10713 11.3225 6.26297 10.9722 5.64079 10.3494C5.01848 9.72657 4.66895 8.88213 4.66895 8.00171C4.67134 7.1199 5.02328 6.2751 5.64759 5.6524C6.27203 5.02986 7.1177 4.68017 7.99954 4.68017L7.99951 4.68014Z" fill="#787878"/>
</svg>
